<svg xmlns="http://www.w3.org/2000/svg" viewBox="0 0 1200 1400" preserveAspectRatio="xMidYMid slice">
  <defs>
    <linearGradient id="bg" x1="0%" y1="0%" x2="100%" y2="100%">
      <stop offset="0%" stop-color="#fff8f2"/>
      <stop offset="40%" stop-color="#ffedd5"/>
      <stop offset="100%" stop-color="#fdba74"/>
    </linearGradient>
    <linearGradient id="arch" x1="0%" y1="0%" x2="0%" y2="100%">
      <stop offset="0%" stop-color="#d96d0f" stop-opacity="0.35"/>
      <stop offset="100%" stop-color="#9a3412" stop-opacity="0.55"/>
    </linearGradient>
    <pattern id="dots" width="28" height="28" patternUnits="userSpaceOnUse">
      <circle cx="4" cy="4" r="1.5" fill="#d96d0f" fill-opacity="0.12"/>
    </pattern>
  </defs>
  <rect width="1200" height="1400" fill="url(#bg)"/>
  <rect width="1200" height="1400" fill="url(#dots)"/>
  <path fill="url(#arch)" d="M0 820 C200 680 400 620 600 600 C800 620 1000 680 1200 820 L1200 1400 L0 1400 Z"/>
  <path fill="#d96d0f" fill-opacity="0.22" d="M120 820 L360 700 L600 820 L600 1200 L120 1200 Z"/>
  <path fill="#d96d0f" fill-opacity="0.28" d="M420 820 L600 680 L780 820 L780 1240 L420 1240 Z"/>
  <path fill="#d96d0f" fill-opacity="0.2" d="M780 820 L960 740 L1080 820 L1080 1180 L780 1180 Z"/>
  <circle cx="980" cy="220" r="120" fill="#d96d0f" fill-opacity="0.08"/>
  <circle cx="180" cy="340" r="90" fill="#fbbf24" fill-opacity="0.15"/>
</svg>
