<?xml version="1.0" encoding="UTF-8"?>
<svg xmlns="http://www.w3.org/2000/svg" xmlns:xlink="http://www.w3.org/1999/xlink" width="423.83pt" height="198.41pt" viewBox="0 0 423.83 198.41" version="1.1">
<defs>
<clipPath id="clip1">
  <path d="M 369 73 L 423.828125 73 L 423.828125 129 L 369 129 Z M 369 73 "/>
</clipPath>
<clipPath id="clip2">
  <path d="M 5 195 L 9 195 L 9 198.410156 L 5 198.410156 Z M 5 195 "/>
</clipPath>
<clipPath id="clip3">
  <path d="M 9 195 L 13 195 L 13 198.410156 L 9 198.410156 Z M 9 195 "/>
</clipPath>
<clipPath id="clip4">
  <path d="M 118 195 L 122 195 L 122 198.410156 L 118 198.410156 Z M 118 195 "/>
</clipPath>
<clipPath id="clip5">
  <path d="M 122 195 L 126 195 L 126 198.410156 L 122 198.410156 Z M 122 195 "/>
</clipPath>
<clipPath id="clip6">
  <path d="M 415 153 L 423.828125 153 L 423.828125 169 L 415 169 Z M 415 153 "/>
</clipPath>
</defs>
<g id="surface1">
<path style=" stroke:none;fill-rule:nonzero;fill:rgb(75.698853%,25.498962%,8.999634%);fill-opacity:1;" d="M 119.195313 50.800781 L 119.195313 54.214844 L 121.773438 54.214844 C 121.847656 54.214844 121.925781 54.222656 122.003906 54.226563 L 122.390625 54.226563 C 124.378906 54.226563 125.859375 55.042969 126.789063 56.359375 C 127.578125 57.453125 127.980469 58.894531 127.980469 60.503906 L 127.980469 118.257813 C 127.980469 119.871094 127.578125 121.3125 126.789063 122.40625 C 125.859375 123.71875 124.378906 124.539063 122.390625 124.539063 L 122.003906 124.539063 C 121.925781 124.539063 121.847656 124.546875 121.773438 124.546875 L 119.195313 124.546875 L 119.195313 127.960938 L 144.789063 127.960938 L 144.789063 124.546875 L 142.214844 124.546875 C 142.136719 124.546875 142.058594 124.539063 141.980469 124.539063 L 141.597656 124.539063 C 139.605469 124.539063 138.132813 123.71875 137.191406 122.40625 C 136.410156 121.3125 136 119.871094 136 118.257813 L 136 60.503906 C 136 58.894531 136.410156 57.453125 137.191406 56.359375 C 138.132813 55.042969 139.605469 54.226563 141.597656 54.226563 L 141.980469 54.226563 C 142.058594 54.222656 142.136719 54.214844 142.214844 54.214844 L 144.789063 54.214844 L 144.789063 50.800781 L 131.992188 50.800781 "/>
<path style=" stroke:none;fill-rule:nonzero;fill:rgb(75.698853%,25.498962%,8.999634%);fill-opacity:1;" d="M 148.960938 50.800781 L 148.960938 54.214844 L 151.539063 54.214844 C 151.621094 54.214844 151.695313 54.222656 151.769531 54.226563 L 152.152344 54.226563 C 154.148438 54.226563 155.628906 55.042969 156.558594 56.359375 C 157.34375 57.453125 157.753906 58.894531 157.753906 60.503906 L 157.753906 118.257813 C 157.753906 119.871094 157.34375 121.3125 156.558594 122.40625 C 155.628906 123.71875 154.148438 124.539063 152.152344 124.539063 L 151.769531 124.539063 C 151.695313 124.539063 151.621094 124.546875 151.539063 124.546875 L 148.960938 124.546875 L 148.960938 127.960938 L 174.558594 127.960938 L 174.558594 124.546875 L 171.984375 124.546875 C 171.902344 124.546875 171.828125 124.539063 171.75 124.539063 L 171.363281 124.539063 C 169.375 124.539063 167.894531 123.71875 166.960938 122.40625 C 166.179688 121.3125 165.769531 119.871094 165.769531 118.257813 L 165.769531 60.503906 C 165.769531 58.894531 166.179688 57.453125 166.960938 56.359375 C 167.894531 55.042969 169.375 54.226563 171.363281 54.226563 L 171.75 54.226563 C 171.828125 54.222656 171.902344 54.214844 171.984375 54.214844 L 174.558594 54.214844 L 174.558594 50.800781 L 161.761719 50.800781 "/>
<path style=" stroke:none;fill-rule:nonzero;fill:rgb(75.698853%,25.498962%,8.999634%);fill-opacity:1;" d="M 264.90625 101.628906 C 268.925781 97.855469 270.660156 92.195313 269.605469 86.78125 C 269.363281 85.515625 269.023438 84.3125 268.660156 83.230469 C 267.28125 79.128906 264.566406 75.550781 260.835938 73.347656 C 260.8125 73.335938 260.789063 73.328125 260.769531 73.316406 C 260.691406 73.269531 260.597656 73.328125 260.59375 73.414063 L 260.59375 73.210938 C 257.089844 71.203125 252.914063 70.09375 248.304688 70.09375 C 229.984375 70.09375 220.65625 83.296875 220.65625 100.136719 C 220.65625 112.882813 228.390625 128.015625 247.160156 128.015625 C 252.816406 128.015625 257.253906 127.195313 260.59375 125.902344 C 266.050781 123.796875 268.5625 120.425781 268.5625 117.316406 C 268.5625 115.953125 266.851563 113.675781 265.027344 112.992188 C 264.023438 114.628906 262.65625 116.667969 260.59375 118.476563 C 257.761719 120.953125 253.605469 123.007813 247.160156 123.007813 C 235.78125 123.007813 228.5 111.515625 228.5 100.136719 C 228.5 87.617188 234.644531 75.101563 247.960938 75.101563 C 253.804688 75.101563 257.960938 77.539063 260.59375 81.234375 L 260.59375 81.199219 C 260.59375 81.226563 260.601563 81.246094 260.617188 81.269531 C 261.738281 82.847656 262.578125 84.664063 263.15625 86.617188 C 264.152344 89.984375 263.542969 93.648438 261.449219 96.476563 C 261.1875 96.828125 260.90625 97.171875 260.621094 97.507813 C 260.605469 97.527344 260.59375 97.554688 260.59375 97.582031 L 260.59375 97.539063 C 258.992188 99.367188 257 100.820313 254.636719 101.734375 C 252.832031 102.441406 250.816406 102.84375 248.605469 102.84375 C 246.84375 102.84375 245.453125 102.53125 244.332031 102.054688 C 241.328125 100.757813 240.410156 98.230469 240.410156 97.152344 C 239.25 97.207031 238.214844 97.644531 237.410156 98.289063 C 236.394531 99.09375 235.742188 100.21875 235.742188 101.363281 C 235.742188 106.257813 242 108.1875 247.917969 108.1875 C 252.667969 108.1875 256.953125 106.972656 260.59375 104.847656 C 262.125 103.949219 263.542969 102.898438 264.835938 101.695313 C 264.816406 101.699219 264.804688 101.699219 264.792969 101.699219 C 264.816406 101.695313 264.84375 101.6875 264.867188 101.664063 "/>
<path style=" stroke:none;fill-rule:nonzero;fill:rgb(75.698853%,25.498962%,8.999634%);fill-opacity:1;" d="M 308.222656 114.984375 C 308.222656 114.984375 306.742188 122.605469 300.484375 122.605469 C 300.054688 122.605469 299.664063 122.558594 299.28125 122.5 C 294.875 121.765625 293.5625 116.964844 293.351563 111.679688 L 293.339844 83.242188 C 293.339844 81.636719 294.089844 80.265625 294.875 79.171875 C 295.402344 78.4375 296.105469 77.863281 296.960938 77.496094 C 297.632813 77.203125 298.40625 77.03125 299.28125 77.03125 L 302.804688 77.03125 C 303.796875 77.03125 304.691406 76.949219 305.492188 76.796875 C 308.648438 76.207031 310.3125 74.542969 310.3125 72.367188 C 310.3125 70.320313 308.832031 69.292969 306.898438 68.953125 C 305.976563 71.652344 306.785156 73.011719 299.28125 73.453125 C 297.453125 73.558594 295.152344 73.613281 292.207031 73.617188 L 292.207031 62.816406 L 287.65625 62.816406 L 287.65625 62.890625 L 285.832031 62.890625 L 285.832031 67.347656 C 285.832031 67.53125 285.820313 67.71875 285.808594 67.898438 C 285.695313 69.285156 285.167969 70.527344 284.476563 71.496094 C 283.953125 72.234375 283.25 72.804688 282.390625 73.171875 C 281.71875 73.457031 280.949219 73.625 280.074219 73.625 L 279.6875 73.625 C 279.605469 73.632813 279.53125 73.636719 279.453125 73.636719 L 276.878906 73.636719 L 276.878906 77.050781 L 285.832031 77.050781 L 285.832031 83.316406 C 285.832031 83.128906 285.820313 82.949219 285.808594 82.769531 L 285.808594 109.976563 C 285.808594 110.40625 285.832031 110.804688 285.847656 111.214844 L 285.847656 111.679688 L 285.863281 111.679688 C 286.070313 116.203125 287.136719 119.617188 288.765625 122.105469 C 291.289063 125.964844 295.148438 127.617188 299.28125 127.714844 C 299.414063 127.71875 299.550781 127.730469 299.691406 127.730469 C 307.316406 127.730469 312.210938 123.515625 312.210938 119.421875 C 312.210938 115.214844 308.222656 114.984375 308.222656 114.984375 "/>
<path style=" stroke:none;fill-rule:nonzero;fill:rgb(75.698853%,25.498962%,8.999634%);fill-opacity:1;" d="M 350.488281 73.636719 L 319.96875 73.636719 L 319.96875 77.050781 L 322.546875 77.050781 C 322.625 77.050781 322.699219 77.058594 322.777344 77.0625 L 323.160156 77.0625 C 324.65625 77.0625 325.855469 77.519531 326.761719 78.300781 C 327.066406 78.5625 327.335938 78.859375 327.570313 79.191406 C 328.101563 79.933594 328.585938 80.84375 328.84375 81.84375 C 328.933594 82.4375 328.984375 83.082031 328.984375 83.800781 L 328.984375 117.90625 C 328.984375 119.519531 328.351563 120.960938 327.570313 122.054688 C 326.632813 123.367188 325.152344 124.1875 323.160156 124.1875 L 322.777344 124.1875 C 322.699219 124.191406 322.625 124.195313 322.546875 124.195313 L 319.96875 124.195313 L 319.96875 127.613281 L 345.566406 127.613281 L 345.566406 124.195313 L 342.988281 124.195313 C 342.914063 124.195313 342.835938 124.191406 342.753906 124.1875 L 342.371094 124.1875 C 340.378906 124.1875 338.902344 123.367188 337.964844 122.054688 C 337.191406 120.972656 336.507813 119.546875 336.496094 117.957031 C 336.496094 117.910156 336.492188 117.863281 336.492188 117.824219 L 336.492188 82.96875 C 336.492188 80.390625 338.578125 78.300781 341.160156 78.300781 L 350.035156 78.300781 C 354.8125 78.300781 356.75 81.488281 356.75 84.902344 C 356.75 86.382813 355.839844 88.773438 355.382813 89.109375 C 355.382813 89.109375 356.0625 90.589844 358.453125 90.589844 C 361.753906 90.589844 363.347656 87.175781 363.347656 84.335938 C 363.347656 82.09375 362.839844 80.015625 361.707031 78.300781 C 359.847656 75.484375 356.289063 73.636719 350.488281 73.636719 "/>
<g clip-path="url(#clip1)" clip-rule="nonzero">
<path style=" stroke:none;fill-rule:nonzero;fill:rgb(75.698853%,25.498962%,8.999634%);fill-opacity:1;" d="M 421.246094 124.195313 C 421.167969 124.195313 421.09375 124.1875 421.015625 124.1875 L 420.632813 124.1875 C 418.636719 124.1875 417.164063 123.367188 416.226563 122.050781 C 415.945313 121.660156 415.691406 121.226563 415.46875 120.75 C 415.074219 119.480469 414.898438 117.925781 414.898438 116.113281 L 414.898438 93.097656 C 414.898438 86.417969 413.25 81.128906 410.273438 77.542969 C 409.46875 76.566406 408.566406 75.722656 407.570313 75.011719 C 406.253906 74.070313 404.648438 73.636719 403.035156 73.636719 L 385.304688 73.636719 C 379.511719 73.636719 375.953125 75.480469 374.085938 78.304688 C 372.953125 80.015625 372.449219 82.089844 372.449219 84.328125 C 372.449219 87.179688 374.039063 90.589844 377.339844 90.589844 C 379.726563 90.589844 380.414063 89.109375 380.414063 89.109375 C 379.957031 88.765625 379.046875 86.378906 379.046875 84.902344 C 379.046875 81.488281 380.980469 78.304688 385.761719 78.304688 L 399.304688 78.304688 C 402.472656 78.304688 405.273438 80.378906 406.1875 83.414063 C 407.234375 86.878906 407.277344 90.894531 407.277344 93.097656 L 407.277344 95.980469 L 399.996094 95.980469 C 383.378906 95.980469 369.957031 99.164063 369.957031 113.160156 C 369.957031 124.652344 381.21875 128.527344 388.277344 128.527344 C 400.679688 128.527344 401.816406 124.3125 401.816406 121.925781 C 401.816406 120.214844 399.882813 118.738281 399.425781 118.738281 C 399.425781 118.738281 396.238281 123.859375 388.617188 123.859375 C 383.726563 123.859375 377.917969 120.671875 377.917969 113.273438 C 377.917969 104.058594 385.886719 100.871094 399.882813 100.871094 L 407.277344 100.871094 L 407.277344 118.296875 C 407.277344 123.4375 411.449219 127.609375 416.585938 127.609375 L 423.824219 127.609375 L 423.824219 124.195313 "/>
</g>
<path style=" stroke:none;fill-rule:nonzero;fill:rgb(75.698853%,25.498962%,8.999634%);fill-opacity:1;" d="M 124.675781 46.261719 L 124.675781 42.363281 L 132.988281 42.363281 L 132.988281 46.261719 L 141.300781 46.261719 L 141.300781 42.363281 L 149.613281 42.363281 L 149.613281 46.261719 L 157.925781 46.261719 L 157.925781 42.363281 L 166.234375 42.363281 L 166.234375 46.261719 L 174.546875 46.261719 L 174.546875 38.878906 L 0.00390625 38.878906 L 0.00390625 46.261719 L 8.308594 46.261719 L 8.308594 42.363281 L 16.625 42.363281 L 16.625 46.261719 L 24.9375 46.261719 L 24.9375 42.363281 L 33.25 42.363281 L 33.25 46.261719 L 41.558594 46.261719 L 41.558594 42.363281 L 49.871094 42.363281 L 49.871094 46.261719 L 58.183594 46.261719 L 58.183594 42.363281 L 66.496094 42.363281 L 66.496094 46.261719 L 74.800781 46.261719 L 74.800781 42.363281 L 83.117188 42.363281 L 83.117188 46.261719 L 91.425781 46.261719 L 91.425781 42.363281 L 99.742188 42.363281 L 99.742188 46.261719 L 108.054688 46.261719 L 108.054688 42.363281 L 116.363281 42.363281 L 116.363281 46.261719 "/>
<path style=" stroke:none;fill-rule:nonzero;fill:rgb(75.698853%,25.498962%,8.999634%);fill-opacity:1;" d="M 85.40625 34.867188 L 174.558594 34.023438 L 174.558594 22.78125 L 87.753906 0.121094 L 87.296875 0 L 0.0820313 23.621094 L 0.0820313 34.867188 Z M 87.316406 3.605469 L 159.480469 22.449219 L 136.519531 22.5625 L 136.527344 22.535156 L 87.324219 8.722656 L 33.925781 23.058594 L 15.171875 23.148438 Z M 123.945313 22.621094 L 47.621094 22.988281 L 87.300781 12.335938 Z M 3.578125 26.6875 L 171.066406 25.875 L 171.066406 30.570313 L 85.386719 31.386719 L 3.578125 31.386719 "/>
<path style=" stroke:none;fill-rule:nonzero;fill:rgb(75.698853%,25.498962%,8.999634%);fill-opacity:1;" d="M 89.394531 50.800781 L 89.394531 54.214844 L 91.972656 54.214844 C 92.046875 54.214844 92.128906 54.222656 92.203125 54.226563 L 92.59375 54.226563 C 94.585938 54.226563 96.0625 55.042969 96.992188 56.359375 C 97.777344 57.453125 98.1875 58.894531 98.1875 60.503906 L 98.1875 118.257813 C 98.1875 119.871094 97.777344 121.3125 96.992188 122.40625 C 96.0625 123.71875 94.585938 124.539063 92.59375 124.539063 L 92.203125 124.539063 C 92.128906 124.539063 92.046875 124.546875 91.972656 124.546875 L 89.394531 124.546875 L 89.394531 127.960938 L 114.992188 127.960938 L 114.992188 124.546875 L 112.417969 124.546875 C 112.335938 124.546875 112.261719 124.539063 112.183594 124.539063 L 111.796875 124.539063 C 109.808594 124.539063 108.328125 123.71875 107.394531 122.40625 C 106.613281 121.3125 106.203125 119.871094 106.203125 118.257813 L 106.203125 60.503906 C 106.203125 58.894531 106.613281 57.453125 107.394531 56.359375 C 108.328125 55.042969 109.808594 54.226563 111.796875 54.226563 L 112.183594 54.226563 C 112.261719 54.222656 112.335938 54.214844 112.417969 54.214844 L 114.992188 54.214844 L 114.992188 50.800781 L 102.195313 50.800781 "/>
<path style=" stroke:none;fill-rule:nonzero;fill:rgb(75.698853%,25.498962%,8.999634%);fill-opacity:1;" d="M 59.597656 50.800781 L 59.597656 54.214844 L 62.175781 54.214844 C 62.25 54.214844 62.332031 54.222656 62.40625 54.226563 L 62.789063 54.226563 C 64.789063 54.226563 66.261719 55.042969 67.195313 56.359375 C 67.980469 57.453125 68.390625 58.894531 68.390625 60.503906 L 68.390625 118.257813 C 68.390625 119.871094 67.980469 121.3125 67.195313 122.40625 C 66.261719 123.71875 64.789063 124.539063 62.789063 124.539063 L 62.40625 124.539063 C 62.332031 124.539063 62.25 124.546875 62.175781 124.546875 L 59.597656 124.546875 L 59.597656 127.960938 L 85.191406 127.960938 L 85.191406 124.546875 L 82.617188 124.546875 C 82.539063 124.546875 82.464844 124.539063 82.382813 124.539063 L 82 124.539063 C 80.011719 124.539063 78.53125 123.71875 77.59375 122.40625 C 76.816406 121.3125 76.40625 119.871094 76.40625 118.257813 L 76.40625 60.503906 C 76.40625 58.894531 76.816406 57.453125 77.59375 56.359375 C 78.53125 55.042969 80.011719 54.226563 82 54.226563 L 82.382813 54.226563 C 82.464844 54.222656 82.539063 54.214844 82.617188 54.214844 L 85.191406 54.214844 L 85.191406 50.800781 L 72.398438 50.800781 "/>
<path style=" stroke:none;fill-rule:nonzero;fill:rgb(75.698853%,25.498962%,8.999634%);fill-opacity:1;" d="M 29.796875 50.800781 L 29.796875 54.214844 L 32.378906 54.214844 C 32.453125 54.214844 32.53125 54.222656 32.605469 54.226563 L 32.992188 54.226563 C 34.988281 54.226563 36.464844 55.042969 37.394531 56.359375 C 38.183594 57.453125 38.589844 58.894531 38.589844 60.503906 L 38.589844 118.257813 C 38.589844 119.871094 38.183594 121.3125 37.394531 122.40625 C 36.464844 123.71875 34.988281 124.539063 32.992188 124.539063 L 32.605469 124.539063 C 32.53125 124.539063 32.453125 124.546875 32.378906 124.546875 L 29.796875 124.546875 L 29.796875 127.960938 L 55.394531 127.960938 L 55.394531 124.546875 L 52.820313 124.546875 C 52.738281 124.546875 52.664063 124.539063 52.585938 124.539063 L 52.203125 124.539063 C 50.210938 124.539063 48.734375 123.71875 47.796875 122.40625 C 47.015625 121.3125 46.605469 119.871094 46.605469 118.257813 L 46.605469 60.503906 C 46.605469 58.894531 47.015625 57.453125 47.796875 56.359375 C 48.734375 55.042969 50.210938 54.226563 52.203125 54.226563 L 52.585938 54.226563 C 52.664063 54.222656 52.738281 54.214844 52.820313 54.214844 L 55.394531 54.214844 L 55.394531 50.800781 L 42.597656 50.800781 "/>
<path style=" stroke:none;fill-rule:nonzero;fill:rgb(75.698853%,25.498962%,8.999634%);fill-opacity:1;" d="M 0 50.800781 L 0 54.214844 L 2.578125 54.214844 C 2.652344 54.214844 2.734375 54.222656 2.808594 54.226563 L 3.191406 54.226563 C 5.191406 54.226563 6.664063 55.042969 7.597656 56.359375 C 8.382813 57.453125 8.792969 58.894531 8.792969 60.503906 L 8.792969 118.257813 C 8.792969 119.871094 8.382813 121.3125 7.597656 122.40625 C 6.664063 123.71875 5.191406 124.539063 3.191406 124.539063 L 2.808594 124.539063 C 2.734375 124.539063 2.652344 124.546875 2.578125 124.546875 L 0 124.546875 L 0 127.960938 L 25.59375 127.960938 L 25.59375 124.546875 L 23.023438 124.546875 C 22.941406 124.546875 22.867188 124.539063 22.789063 124.539063 L 22.402344 124.539063 C 20.414063 124.539063 18.933594 123.71875 18 122.40625 C 17.21875 121.3125 16.808594 119.871094 16.808594 118.257813 L 16.808594 60.503906 C 16.808594 58.894531 17.21875 57.453125 18 56.359375 C 18.933594 55.042969 20.414063 54.226563 22.402344 54.226563 L 22.789063 54.226563 C 22.867188 54.222656 22.941406 54.214844 23.023438 54.214844 L 25.59375 54.214844 L 25.59375 50.800781 L 12.800781 50.800781 "/>
<path style=" stroke:none;fill-rule:nonzero;fill:rgb(32.199097%,14.099121%,19.999695%);fill-opacity:1;" d="M 192.261719 172.925781 C 193.316406 172.84375 194.351563 172.625 195.394531 172.472656 C 195.460938 176.542969 195.398438 180.609375 195.425781 184.679688 C 195.5 185.871094 194.796875 187.011719 193.808594 187.632813 C 192.371094 188.371094 190.714844 188.195313 189.160156 188.25 C 187.867188 188.226563 186.554688 188.359375 185.273438 188.085938 C 181.980469 187.550781 178.683594 188.539063 175.382813 188.195313 C 174.652344 188.054688 173.949219 187.769531 173.210938 187.660156 C 172.132813 187.722656 171.117188 188.238281 170.027344 188.242188 C 167.753906 188.300781 165.464844 187.984375 163.207031 188.335938 C 161.925781 188.714844 160.734375 189.445313 159.375 189.550781 C 158.449219 189.453125 157.523438 189.179688 156.75 188.660156 C 156.246094 188.378906 155.773438 187.921875 155.15625 187.980469 C 151.121094 187.96875 147.09375 187.988281 143.066406 187.972656 C 142.5625 189.113281 142.140625 190.328125 141.308594 191.28125 C 140.1875 192.425781 138.640625 193.246094 137.003906 193.125 C 136.957031 192.90625 136.859375 192.484375 136.808594 192.273438 C 137.847656 191.621094 138.996094 191.007813 139.59375 189.878906 C 140.011719 189.347656 139.871094 188.644531 139.890625 188.011719 C 138.691406 188.003906 137.484375 188.078125 136.296875 187.914063 C 134.832031 187.503906 133.34375 186.53125 132.90625 184.996094 C 132.238281 182.835938 132.925781 180.277344 134.703125 178.839844 C 135.609375 178.152344 136.6875 177.574219 137.859375 177.59375 C 139.574219 177.59375 141.292969 177.585938 143.007813 177.617188 C 143.019531 180.339844 142.992188 183.074219 143.03125 185.804688 C 146.007813 185.820313 148.984375 185.800781 151.960938 185.816406 C 152.800781 185.828125 153.71875 185.757813 154.40625 185.230469 C 154.890625 184.21875 154.8125 183.035156 155.261719 182.011719 C 155.941406 180.34375 157.558594 179.234375 159.28125 178.890625 C 161.28125 178.285156 163.316406 178.941406 165.335938 179.027344 C 165.367188 181.097656 165.203125 183.171875 165.375 185.242188 C 166.742188 185.941406 168.289063 185.84375 169.777344 185.796875 C 170.609375 185.738281 171.628906 185.324219 171.714844 184.371094 C 171.851563 182.390625 171.460938 180.429688 171.230469 178.476563 C 172.363281 178.234375 173.496094 178 174.636719 177.804688 C 174.679688 180.003906 174.605469 182.207031 174.679688 184.40625 C 174.726563 185.46875 176.023438 185.796875 176.910156 185.8125 C 178.277344 185.777344 179.820313 186.082031 180.996094 185.171875 C 181.273438 182.953125 181.078125 180.691406 180.773438 178.488281 C 181.839844 178.296875 182.890625 178.011719 183.949219 177.789063 C 184.203125 179.898438 183.921875 182.015625 184 184.128906 C 183.976563 184.652344 184.378906 185.078125 184.789063 185.335938 C 186.066406 185.976563 187.523438 185.785156 188.898438 185.8125 C 189.9375 185.789063 191.066406 185.953125 192.027344 185.433594 C 192.625 185.136719 192.496094 184.414063 192.519531 183.871094 C 192.507813 181.460938 192.515625 179.046875 192.429688 176.632813 C 192.222656 175.40625 192.1875 174.167969 192.261719 172.925781 M 137.761719 179.261719 C 136.40625 179.710938 135.617188 181.148438 135.605469 182.523438 C 135.585938 183.359375 135.5625 184.335938 136.246094 184.941406 C 137.265625 185.960938 138.820313 185.957031 140.121094 185.589844 C 140.066406 183.441406 140.308594 181.273438 139.910156 179.148438 C 139.195313 179.167969 138.464844 179.117188 137.761719 179.261719 M 160.808594 180.523438 C 159.628906 180.5625 158.472656 181.292969 157.996094 182.386719 C 157.523438 183.207031 157.628906 184.214844 157.734375 185.117188 C 158.019531 185.996094 158.535156 187.117188 159.597656 187.171875 C 160.527344 187.269531 161.738281 187.035156 162.089844 186.042969 C 162.515625 184.429688 162.539063 182.703125 162.109375 181.09375 C 161.878906 180.59375 161.296875 180.496094 160.808594 180.523438 "/>
<path style=" stroke:none;fill-rule:nonzero;fill:rgb(32.199097%,14.099121%,19.999695%);fill-opacity:1;" d="M 208.773438 172.859375 C 209.796875 172.683594 210.832031 172.578125 211.871094 172.574219 C 211.890625 177.777344 211.910156 182.984375 211.859375 188.195313 C 210.828125 188.210938 209.804688 188.21875 208.777344 188.167969 C 208.765625 183.066406 208.785156 177.960938 208.773438 172.859375 "/>
<path style=" stroke:none;fill-rule:nonzero;fill:rgb(32.199097%,14.099121%,19.999695%);fill-opacity:1;" d="M 353.242188 173.777344 C 353.644531 173.101563 354.019531 172.074219 354.996094 172.238281 C 355.996094 172.019531 356.984375 172.960938 356.742188 173.972656 C 356.679688 175.246094 355.128906 175.511719 354.136719 175.132813 C 353.757813 174.734375 353.515625 174.246094 353.242188 173.777344 "/>
<path style=" stroke:none;fill-rule:nonzero;fill:rgb(32.199097%,14.099121%,19.999695%);fill-opacity:1;" d="M 42.234375 173.003906 C 43.273438 172.625 44.371094 172.503906 45.464844 172.441406 C 45.496094 176.582031 45.4375 180.71875 45.496094 184.851563 C 46.15625 185.300781 46.917969 185.621094 47.734375 185.570313 C 52.167969 185.59375 56.605469 185.5625 61.046875 185.582031 C 61.78125 185.570313 62.53125 185.511719 63.21875 185.21875 C 64.003906 184.5625 63.773438 183.433594 63.765625 182.539063 C 63.5625 181.097656 63.59375 179.644531 63.570313 178.203125 C 64.542969 177.921875 65.535156 177.730469 66.523438 177.542969 C 66.996094 179.835938 66.546875 182.214844 66.777344 184.535156 C 66.996094 185.511719 68.183594 185.5625 68.996094 185.582031 C 70.0625 185.542969 71.160156 185.703125 72.207031 185.441406 C 72.964844 185.324219 73.195313 184.492188 73.34375 183.84375 C 73.414063 182.300781 73.347656 180.738281 73.367188 179.179688 C 74.273438 178.96875 75.164063 178.734375 76.074219 178.570313 C 76.117188 180.40625 76.054688 182.253906 76.101563 184.089844 C 76.253906 185.988281 79.644531 186.210938 79.996094 184.3125 C 80.082031 182.617188 79.996094 180.910156 80.023438 179.207031 C 80.921875 179.007813 81.820313 178.789063 82.71875 178.585938 C 82.777344 180.253906 82.71875 181.933594 82.753906 183.605469 C 82.761719 184.417969 83.199219 185.324219 84.058594 185.5 C 84.957031 185.667969 86.222656 185.785156 86.636719 184.746094 C 86.882813 182.6875 86.523438 180.609375 86.496094 178.554688 C 87.320313 177.859375 88.546875 177.871094 89.589844 177.777344 C 89.625 179.882813 89.554688 181.996094 89.621094 184.097656 C 89.632813 184.855469 90.339844 185.402344 91.054688 185.5 C 92.386719 185.667969 93.734375 185.539063 95.078125 185.582031 C 95.824219 185.640625 96.550781 185.457031 97.265625 185.246094 C 97.472656 184.636719 97.664063 184 97.605469 183.339844 C 97.539063 181.820313 97.605469 180.304688 97.519531 178.785156 C 97.253906 176.832031 97.285156 174.847656 97.289063 172.878906 C 98.371094 172.6875 99.429688 172.4375 100.5 172.214844 C 100.539063 176.277344 100.515625 180.335938 100.507813 184.390625 C 100.523438 186.183594 99.078125 187.984375 97.207031 187.9375 C 94.382813 187.9375 91.539063 188.136719 88.734375 187.722656 C 87.464844 187.542969 86.230469 188.0625 84.964844 187.96875 C 83.949219 187.964844 83.097656 187.355469 82.269531 186.859375 C 81.28125 187.371094 80.28125 188.039063 79.117188 187.96875 C 77.773438 188.082031 76.589844 187.359375 75.40625 186.839844 C 74.523438 187.378906 73.582031 188.023438 72.496094 187.945313 C 70.878906 187.917969 69.277344 187.960938 67.667969 187.953125 C 66.585938 187.96875 65.601563 187.308594 64.511719 187.457031 C 63.351563 187.566406 62.222656 187.945313 61.042969 187.945313 C 56.25 187.933594 51.457031 187.929688 46.664063 187.941406 C 45.769531 187.957031 44.863281 187.746094 44.070313 187.335938 C 43.179688 186.742188 42.691406 185.683594 42.570313 184.648438 C 42.511719 180.761719 42.742188 176.867188 42.234375 173.003906 "/>
<path style=" stroke:none;fill-rule:nonzero;fill:rgb(32.199097%,14.099121%,19.999695%);fill-opacity:1;" d="M 103.800781 172.625 C 104.664063 172.519531 105.527344 172.421875 106.390625 172.277344 C 106.457031 177.5 106.410156 182.71875 106.410156 187.933594 C 105.433594 187.9375 104.449219 187.9375 103.472656 187.929688 C 103.472656 182.925781 103.445313 177.929688 103.484375 172.925781 C 103.5625 172.851563 103.714844 172.699219 103.800781 172.625 "/>
<path style=" stroke:none;fill-rule:nonzero;fill:rgb(32.199097%,14.099121%,19.999695%);fill-opacity:1;" d="M 358.480469 172.332031 C 359.160156 172.257813 360.132813 172.007813 360.585938 172.683594 C 361.3125 173.421875 361.0625 174.90625 360.027344 175.214844 C 359.480469 175.28125 358.925781 175.253906 358.390625 175.261719 C 357.558594 174.5 357.375 172.9375 358.480469 172.332031 "/>
<path style=" stroke:none;fill-rule:nonzero;fill:rgb(32.199097%,14.099121%,19.999695%);fill-opacity:1;" d="M 171.460938 172.769531 C 172.230469 172.628906 173.105469 172.386719 173.828125 172.839844 C 174.664063 173.503906 174.550781 175.046875 173.535156 175.472656 C 172.5625 176.097656 171.15625 175.359375 170.941406 174.28125 C 170.96875 173.738281 171.28125 173.265625 171.460938 172.769531 "/>
<path style=" stroke:none;fill-rule:nonzero;fill:rgb(32.199097%,14.099121%,19.999695%);fill-opacity:1;" d="M 178.0625 172.644531 C 178.679688 172.542969 179.398438 172.484375 179.921875 172.898438 C 180.460938 173.472656 180.355469 174.351563 180.1875 175.0625 C 179.628906 175.496094 178.839844 175.949219 178.136719 175.570313 C 176.859375 175.199219 176.695313 173 178.0625 172.644531 "/>
<path style=" stroke:none;fill-rule:nonzero;fill:rgb(32.199097%,14.099121%,19.999695%);fill-opacity:1;" d="M 182.082031 172.703125 C 182.757813 172.421875 183.542969 172.597656 184.195313 172.871094 C 184.707031 173.484375 184.566406 174.34375 184.441406 175.066406 C 183.96875 175.402344 183.410156 175.71875 182.8125 175.703125 C 182.113281 175.558594 181.289063 175.089844 181.3125 174.273438 C 181.234375 173.660156 181.519531 172.980469 182.082031 172.703125 "/>
<path style=" stroke:none;fill-rule:nonzero;fill:rgb(32.199097%,14.099121%,19.999695%);fill-opacity:1;" d="M 198.542969 172.792969 C 199.449219 172.644531 200.371094 172.570313 201.292969 172.535156 C 201.597656 173.621094 201.453125 174.765625 201.476563 175.882813 C 201.496094 179.898438 201.460938 183.914063 201.488281 187.925781 C 200.546875 188.320313 199.519531 188.261719 198.566406 187.976563 C 198.519531 182.910156 198.546875 177.855469 198.542969 172.792969 "/>
<path style=" stroke:none;fill-rule:nonzero;fill:rgb(32.199097%,14.099121%,19.999695%);fill-opacity:1;" d="M 234.695313 172.644531 C 235.800781 172.226563 237.175781 173.34375 236.871094 174.519531 C 236.671875 175.578125 235.382813 175.972656 234.472656 175.578125 C 233.164063 175.15625 233.308594 172.894531 234.695313 172.644531 "/>
<path style=" stroke:none;fill-rule:nonzero;fill:rgb(32.199097%,14.099121%,19.999695%);fill-opacity:1;" d="M 238.703125 172.722656 C 239.976563 172.007813 241.769531 173.625 240.917969 174.902344 C 240.359375 175.957031 238.710938 176.039063 238.015625 175.101563 C 237.335938 174.355469 237.816406 173.070313 238.703125 172.722656 "/>
<path style=" stroke:none;fill-rule:nonzero;fill:rgb(32.199097%,14.099121%,19.999695%);fill-opacity:1;" d="M 264.324219 172.847656 C 265.355469 172.765625 266.390625 172.738281 267.429688 172.757813 C 267.40625 177.898438 267.460938 183.046875 267.402344 188.191406 C 266.371094 188.207031 265.347656 188.210938 264.320313 188.179688 C 264.320313 183.066406 264.3125 177.957031 264.324219 172.847656 "/>
<path style=" stroke:none;fill-rule:nonzero;fill:rgb(32.199097%,14.099121%,19.999695%);fill-opacity:1;" d="M 340.195313 173.230469 C 340.894531 172.476563 342.140625 172.953125 343.074219 172.785156 C 343.121094 177.953125 343.082031 183.121094 343.097656 188.285156 C 342.117188 188.308594 341.140625 188.296875 340.15625 188.285156 C 340.171875 183.265625 340.09375 178.25 340.195313 173.230469 "/>
<path style=" stroke:none;fill-rule:nonzero;fill:rgb(32.199097%,14.099121%,19.999695%);fill-opacity:1;" d="M 258.144531 173.164063 C 259.207031 172.921875 260.277344 172.710938 261.378906 172.722656 C 261.378906 176.878906 261.421875 181.046875 261.351563 185.203125 C 261.316406 186.851563 259.847656 188.058594 258.285156 188.214844 C 256.503906 188.316406 254.726563 188.292969 252.945313 188.304688 C 251.328125 188.402344 249.777344 187.753906 248.15625 187.996094 C 246.492188 188.304688 244.800781 188.375 243.113281 188.238281 C 240.578125 187.777344 237.960938 187.777344 235.417969 188.179688 C 233.203125 188.246094 230.984375 188.144531 228.769531 188.242188 C 225.574219 188.261719 222.367188 188.132813 219.171875 188.222656 C 218.765625 189.546875 218.265625 190.953125 217.078125 191.78125 C 215.894531 192.609375 214.523438 193.546875 213.015625 193.296875 C 212.960938 192.964844 212.910156 192.636719 212.871094 192.304688 C 214.335938 191.804688 215.921875 190.820313 216.164063 189.164063 C 216.234375 186.492188 216.203125 183.8125 216.117188 181.140625 C 216.117188 180.285156 215.523438 179.21875 216.234375 178.515625 C 217.152344 178.167969 218.164063 178.144531 219.101563 177.828125 C 219.160156 179.75 219.101563 181.679688 219.128906 183.613281 C 219.164063 184.253906 219.257813 184.960938 219.710938 185.453125 C 220.277344 185.757813 220.929688 185.835938 221.566406 185.824219 C 226.363281 185.796875 231.164063 185.828125 235.957031 185.804688 C 236.777344 185.851563 237.652344 185.234375 237.683594 184.371094 C 237.847656 182.441406 237.296875 180.550781 237.355469 178.613281 C 238.316406 178.316406 239.304688 178.148438 240.269531 177.863281 C 241.0625 180.351563 240.09375 183.050781 240.90625 185.53125 C 242.410156 185.984375 243.988281 185.78125 245.53125 185.804688 C 246.425781 185.863281 247.289063 185.054688 247.214844 184.136719 C 247.230469 182.324219 246.996094 180.507813 246.660156 178.722656 C 247.789063 178.355469 248.964844 178.164063 250.105469 177.832031 C 250.171875 180.109375 250.078125 182.394531 250.148438 184.675781 C 250.195313 185.558594 251.214844 185.722656 251.921875 185.800781 C 253.59375 185.875 255.277344 185.863281 256.957031 185.84375 C 257.769531 185.871094 258.496094 185.171875 258.578125 184.359375 C 258.664063 183.21875 258.636719 182.070313 258.507813 180.929688 C 258.339844 179.253906 258.515625 177.554688 258.230469 175.894531 C 258.125 174.992188 258.15625 174.078125 258.144531 173.164063 "/>
<path style=" stroke:none;fill-rule:nonzero;fill:rgb(32.199097%,14.099121%,19.999695%);fill-opacity:1;" d="M 320.417969 173.332031 C 321.382813 173.113281 322.347656 172.898438 323.332031 172.742188 C 323.386719 176.535156 323.339844 180.335938 323.355469 184.125 C 323.3125 184.761719 323.574219 185.507813 324.226563 185.726563 C 326.058594 186.304688 327.996094 186.011719 329.890625 186.078125 C 331.222656 186.101563 332.835938 186.25 333.777344 185.085938 C 332.390625 184.988281 330.90625 185.15625 329.636719 184.480469 C 328.171875 183.78125 327.804688 181.921875 328.015625 180.460938 C 328.304688 178.613281 330.121094 177.351563 331.910156 177.292969 C 332.980469 177.265625 334.140625 177.191406 335.089844 177.792969 C 336.003906 178.335938 337.007813 179.207031 336.941406 180.375 C 336.929688 182.320313 337.121094 184.355469 336.296875 186.179688 C 335.585938 187.613281 333.898438 188.308594 332.363281 188.3125 C 330.746094 188.5 329.121094 188.46875 327.503906 188.46875 C 325.546875 188.542969 323.609375 188.140625 321.65625 188.25 C 318.9375 188.117188 316.179688 188.960938 313.519531 188.144531 C 311.558594 187.480469 309.5625 188.382813 307.578125 188.304688 C 302.789063 188.296875 297.996094 188.304688 293.203125 188.300781 C 292.441406 188.324219 291.746094 187.929688 290.996094 187.898438 C 289.777344 187.863281 288.5625 187.972656 287.371094 188.199219 C 284.882813 188.351563 282.378906 188.273438 279.894531 188.304688 C 279.265625 188.3125 278.539063 188.585938 278.382813 189.265625 C 278.019531 190.527344 278.273438 191.859375 278.175781 193.152344 C 277.152344 192.660156 276.011719 192.203125 275.3125 191.273438 C 275.117188 190.046875 275.023438 188.59375 275.902344 187.585938 C 276.496094 186.84375 277.28125 186.0625 278.3125 186.089844 C 279.71875 186.050781 281.128906 186.085938 282.539063 186.089844 C 282.46875 184.8125 282.03125 183.5625 282.230469 182.269531 C 282.578125 180.488281 283.761719 178.84375 285.46875 178.140625 C 286.289063 177.691406 287.253906 177.8125 288.164063 177.792969 C 289.496094 177.820313 290.832031 177.773438 292.164063 177.902344 C 292.257813 178 292.433594 178.179688 292.519531 178.269531 C 292.714844 180.511719 292.277344 182.78125 292.609375 185.015625 C 293.078125 185.882813 294.195313 185.945313 295.066406 186.074219 C 299.589844 186.089844 304.105469 186.074219 308.621094 186.078125 C 309.429688 186 310.421875 185.808594 310.824219 185.011719 C 311.175781 182.890625 310.546875 180.777344 310.601563 178.65625 C 311.617188 178.21875 312.714844 178.078125 313.816406 178.085938 C 313.820313 180.097656 313.78125 182.117188 313.8125 184.121094 C 313.859375 184.722656 313.941406 185.5625 314.644531 185.742188 C 316.242188 186.214844 318.015625 186.257813 319.617188 185.730469 C 320.203125 185.597656 320.425781 184.957031 320.4375 184.414063 C 320.515625 180.71875 320.328125 177.027344 320.417969 173.332031 M 332.078125 179.011719 C 330.703125 179.46875 330.597656 181.257813 330.996094 182.429688 C 331.394531 183.546875 332.757813 183.265625 333.695313 183.230469 C 334.175781 183.253906 334.363281 182.691406 334.304688 182.296875 C 334.277344 181.28125 334.535156 180.039063 333.640625 179.316406 C 333.261719 178.835938 332.597656 178.941406 332.078125 179.011719 M 286.257813 180.085938 C 284.847656 181.082031 284.871094 183.042969 285.261719 184.542969 C 285.820313 186.417969 288.773438 186.261719 289.511719 184.601563 C 290.261719 182.96875 289.722656 181.113281 289.332031 179.457031 C 288.273438 179.417969 287.101563 179.308594 286.257813 180.085938 "/>
<path style=" stroke:none;fill-rule:nonzero;fill:rgb(32.199097%,14.099121%,19.999695%);fill-opacity:1;" d="M 329.683594 172.871094 C 330.980469 172.253906 332.871094 173.832031 331.890625 175.121094 C 331.417969 176.007813 330.246094 175.828125 329.429688 175.667969 C 328.339844 175.046875 328.433594 173.246094 329.683594 172.871094 "/>
<path style=" stroke:none;fill-rule:nonzero;fill:rgb(32.199097%,14.099121%,19.999695%);fill-opacity:1;" d="M 333.929688 172.824219 C 334.707031 172.664063 335.550781 172.84375 336.070313 173.484375 C 336.347656 174.261719 336.246094 175.265625 335.429688 175.675781 C 334.582031 175.890625 333.472656 175.902344 332.980469 175.035156 C 332.726563 174.164063 332.964844 173.105469 333.929688 172.824219 "/>
<path style=" stroke:none;fill-rule:nonzero;fill:rgb(32.199097%,14.099121%,19.999695%);fill-opacity:1;" d="M 397.382813 173.578125 C 398.320313 173.21875 399.320313 173.039063 400.335938 173.011719 C 400.351563 176.636719 400.328125 180.261719 400.34375 183.882813 C 400.308594 184.746094 400.65625 185.859375 401.601563 186.078125 C 402.800781 186.179688 404.011719 186.132813 405.214844 186.117188 C 405.957031 186.109375 406.746094 185.507813 406.703125 184.71875 C 406.929688 183.054688 406.902344 181.378906 406.914063 179.707031 C 407.808594 179.457031 408.710938 179.253906 409.628906 179.113281 C 409.691406 180.882813 409.632813 182.644531 409.652344 184.40625 C 409.378906 186.503906 413.136719 186.894531 413.5 184.917969 C 413.714844 183.445313 413.503906 181.945313 413.59375 180.457031 C 413.542969 180.082031 413.785156 179.785156 414.042969 179.539063 C 414.785156 179.386719 415.550781 179.429688 416.3125 179.402344 C 416.351563 181.132813 416.257813 182.851563 416.355469 184.578125 C 416.425781 186.425781 419.6875 186.878906 420.195313 185.089844 C 420.457031 183.019531 419.933594 180.984375 419.914063 178.929688 C 420.890625 178.609375 421.90625 178.394531 422.941406 178.316406 C 422.933594 180.953125 423.113281 183.601563 422.882813 186.234375 C 422.566406 187.730469 420.921875 188.550781 419.492188 188.523438 C 418.113281 188.652344 416.847656 188.011719 415.660156 187.414063 C 414.699219 188.058594 413.605469 188.597656 412.421875 188.523438 C 411.164063 188.640625 410.128906 187.828125 408.988281 187.464844 C 407.828125 187.878906 406.691406 188.457031 405.433594 188.5 C 404.269531 188.535156 403.097656 188.554688 401.9375 188.472656 C 400.488281 188.371094 399.082031 187.683594 397.621094 188.03125 C 395.242188 188.621094 392.785156 188.523438 390.351563 188.519531 C 382.910156 188.535156 375.46875 188.421875 368.027344 188.464844 C 365.976563 188.4375 363.933594 188.515625 361.890625 188.414063 C 360.621094 188.386719 359.601563 187.253906 358.304688 187.507813 C 357.03125 187.71875 355.714844 188.160156 354.4375 187.71875 C 352.421875 187.339844 350.964844 185.347656 351.125 183.324219 C 350.929688 180.960938 352.699219 178.6875 354.976563 178.136719 C 355.851563 177.804688 356.800781 177.851563 357.722656 177.851563 C 358.015625 177.421875 358.296875 176.972656 358.683594 176.613281 C 359.511719 176.246094 360.4375 176.269531 361.324219 176.175781 C 361.316406 178.5625 361.316406 180.953125 361.316406 183.335938 C 361.355469 184.09375 361.375 184.917969 361.820313 185.566406 C 362.269531 185.949219 362.910156 186.035156 363.492188 186.074219 C 366.824219 186.101563 370.160156 186.058594 373.492188 186.097656 C 373.769531 184.742188 373.664063 183.359375 373.679688 181.996094 C 373.679688 179.285156 373.683594 176.582031 373.675781 173.875 C 374.652344 173.605469 375.660156 173.589844 376.664063 173.601563 C 376.703125 176.6875 376.628906 179.777344 376.699219 182.875 C 378.382813 181.238281 380.089844 179.511719 382.320313 178.636719 C 383.757813 178.019531 385.359375 178.085938 386.890625 178.179688 C 388.542969 178.449219 390.273438 179.191406 391.125 180.722656 C 392.132813 182.378906 390.902344 184.5 391.957031 186.132813 C 393.40625 186.066406 394.890625 186.257813 396.332031 186.03125 C 397.355469 185.84375 397.59375 184.726563 397.640625 183.847656 C 397.648438 182.429688 397.59375 181.015625 397.453125 179.601563 C 397.398438 177.597656 397.382813 175.585938 397.382813 173.578125 M 355.609375 180.140625 C 354.875 180.617188 354.144531 181.332031 354.09375 182.265625 C 354.039063 183.175781 353.972656 184.261719 354.722656 184.9375 C 355.644531 185.984375 357.183594 185.648438 358.375 185.386719 C 358.375 183.492188 358.414063 181.59375 358.355469 179.703125 C 357.429688 179.707031 356.433594 179.628906 355.609375 180.140625 M 381.535156 181.351563 C 379.632813 182.371094 377.898438 183.859375 376.917969 185.816406 C 380.820313 185.890625 384.722656 185.84375 388.625 185.839844 C 388.710938 184.667969 388.734375 183.480469 388.578125 182.308594 C 388.414063 181.429688 387.640625 180.808594 386.796875 180.621094 C 385.023438 180.257813 383.136719 180.488281 381.535156 181.351563 "/>
<path style=" stroke:none;fill-rule:nonzero;fill:rgb(32.199097%,14.099121%,19.999695%);fill-opacity:1;" d="M 27.269531 177.992188 C 28.734375 176.699219 30.972656 176.902344 32.589844 177.78125 C 34.347656 178.917969 35.972656 180.320313 37.046875 182.125 C 38.128906 183.886719 39.273438 185.78125 39.230469 187.921875 C 33.648438 187.957031 28.066406 187.921875 22.480469 187.945313 C 21.5625 187.972656 20.652344 187.761719 19.820313 187.394531 C 18.714844 186.816406 18.105469 185.550781 18.078125 184.332031 C 18.03125 182.738281 18.070313 181.140625 18.0625 179.550781 C 16.992188 179.414063 15.875 179 14.824219 179.484375 C 13.148438 179.890625 12.339844 181.722656 12.460938 183.316406 C 12.386719 184.179688 12.832031 185.113281 13.683594 185.410156 C 14.761719 185.824219 15.933594 185.898438 17.054688 186.164063 C 17.066406 187.484375 17.296875 188.914063 16.59375 190.105469 C 15.921875 191.683594 14.34375 192.765625 12.664063 192.996094 C 10.628906 193.101563 8.582031 193.054688 6.539063 193.035156 C 4.515625 193.039063 2.398438 192.171875 1.257813 190.441406 C 0.652344 189.496094 0.234375 188.417969 0.09375 187.308594 C 0.0664063 185.246094 0.078125 183.1875 0.09375 181.128906 C 1.050781 181.105469 2.007813 181.121094 2.945313 181.304688 C 2.820313 183.125 2.925781 184.957031 3.003906 186.785156 C 3.105469 188.648438 4.230469 190.570313 6.097656 191.136719 C 7.625 191.523438 9.230469 191.410156 10.796875 191.378906 C 12.53125 191.320313 14.054688 189.832031 14.144531 188.097656 C 12.820313 187.976563 11.378906 187.613281 10.527344 186.511719 C 8.460938 183.570313 9.960938 178.652344 13.609375 177.84375 C 15.976563 177.382813 18.414063 177.722656 20.8125 177.671875 C 20.871094 179.5625 20.816406 181.457031 20.839844 183.34375 C 20.847656 184.125 21.144531 184.9375 21.878906 185.304688 C 23.324219 185.464844 24.777344 185.324219 26.222656 185.375 C 29.226563 185.625 32.246094 185.582031 35.265625 185.566406 C 34.839844 184.21875 33.957031 183.101563 33.125 181.984375 C 32.238281 180.882813 31.214844 179.800781 29.90625 179.214844 C 29.328125 179.128906 28.519531 178.925781 28.191406 179.566406 C 28.082031 180.347656 28.199219 181.136719 28.289063 181.914063 C 27.375 182.097656 26.445313 182.136719 25.515625 182.160156 C 25.742188 180.667969 26.058594 179.023438 27.269531 177.992188 "/>
<path style=" stroke:none;fill-rule:nonzero;fill:rgb(32.199097%,14.099121%,19.999695%);fill-opacity:1;" d="M 122.460938 178.851563 C 124.382813 177.5 126.820313 177.820313 129.035156 177.835938 C 128.910156 178.390625 128.761719 178.9375 128.613281 179.480469 C 127.234375 179.578125 125.699219 179.214844 124.492188 180.074219 C 123.261719 180.746094 122.957031 182.292969 123.074219 183.578125 C 123.023438 184.773438 123.871094 186.03125 125.121094 186.140625 C 126.820313 186.234375 128.527344 186.144531 130.230469 186.183594 C 130.257813 187.492188 130.445313 188.886719 129.832031 190.105469 C 128.964844 192.171875 126.785156 193.453125 124.589844 193.515625 C 122.210938 193.527344 119.761719 193.722656 117.484375 192.925781 C 115.734375 192.363281 114.265625 190.933594 113.757813 189.160156 C 112.902344 186.660156 113.320313 183.984375 113.292969 181.394531 C 114.246094 181.402344 115.199219 181.402344 116.152344 181.394531 C 116.195313 183.191406 116.136719 184.996094 116.191406 186.800781 C 116.222656 188.734375 117.375 190.738281 119.273438 191.382813 C 120.355469 191.867188 121.566406 191.671875 122.710938 191.71875 C 123.535156 191.679688 124.425781 191.847656 125.191406 191.46875 C 126.410156 190.914063 127.378906 189.695313 127.195313 188.300781 C 126.140625 188.292969 125.085938 188.335938 124.03125 188.277344 C 122.359375 188.109375 120.839844 186.925781 120.335938 185.308594 C 119.6875 183 120.441406 180.25 122.460938 178.851563 "/>
<path style=" stroke:none;fill-rule:nonzero;fill:rgb(32.199097%,14.099121%,19.999695%);fill-opacity:1;" d="M 338.4375 192.335938 C 339.296875 191.164063 340.074219 189.261719 341.851563 189.546875 C 342.558594 189.367188 342.835938 190.035156 342.964844 190.597656 C 342.355469 190.605469 341.769531 190.613281 341.179688 190.644531 C 341.164063 191.058594 341.164063 191.476563 341.171875 191.894531 C 341.9375 191.910156 342.722656 191.84375 343.484375 192.035156 C 343.554688 192.269531 343.695313 192.757813 343.765625 192.996094 C 342.144531 193.019531 340.515625 193.011719 338.894531 193.011719 C 338.78125 192.84375 338.550781 192.503906 338.4375 192.335938 "/>
<path style=" stroke:none;fill-rule:nonzero;fill:rgb(32.199097%,14.099121%,19.999695%);fill-opacity:1;" d="M 60.59375 190.183594 C 61.714844 189.777344 63.265625 191.054688 62.648438 192.253906 C 62.1875 193.339844 60.664063 193.648438 59.832031 192.792969 C 58.859375 191.996094 59.390625 190.394531 60.59375 190.183594 "/>
<path style=" stroke:none;fill-rule:nonzero;fill:rgb(32.199097%,14.099121%,19.999695%);fill-opacity:1;" d="M 64.839844 190.171875 C 65.949219 189.820313 67.554688 191.054688 66.894531 192.253906 C 66.320313 193.433594 64.492188 193.65625 63.773438 192.5 C 63.152344 191.5625 63.835938 190.433594 64.839844 190.171875 "/>
<path style=" stroke:none;fill-rule:nonzero;fill:rgb(32.199097%,14.099121%,19.999695%);fill-opacity:1;" d="M 246.972656 191.304688 C 247.503906 190.214844 249.367188 190.023438 249.945313 191.179688 C 250.457031 191.871094 250.039063 192.722656 249.632813 193.34375 C 248.78125 193.289063 247.652344 193.675781 247.0625 192.855469 C 246.824219 192.378906 246.878906 191.8125 246.972656 191.304688 "/>
<path style=" stroke:none;fill-rule:nonzero;fill:rgb(32.199097%,14.099121%,19.999695%);fill-opacity:1;" d="M 306.601563 191.199219 C 307.359375 190.558594 308.640625 190.230469 309.425781 191.007813 C 309.960938 191.410156 309.910156 192.246094 309.714844 192.8125 C 309.035156 193.933594 307.457031 193.738281 306.589844 192.980469 C 306.578125 192.386719 306.585938 191.796875 306.601563 191.199219 "/>
<path style=" stroke:none;fill-rule:nonzero;fill:rgb(32.199097%,14.099121%,19.999695%);fill-opacity:1;" d="M 311.589844 190.644531 C 312.398438 190.496094 313.574219 190.5 313.925781 191.421875 C 314.367188 192.242188 313.714844 192.996094 313.210938 193.589844 C 312.484375 193.515625 311.566406 193.777344 311.078125 193.085938 C 310.273438 192.398438 310.648438 190.992188 311.589844 190.644531 "/>
<g clip-path="url(#clip2)" clip-rule="nonzero">
<path style=" stroke:none;fill-rule:nonzero;fill:rgb(32.199097%,14.099121%,19.999695%);fill-opacity:1;" d="M 6.324219 195.183594 C 7.152344 194.945313 7.945313 195.242188 8.582031 195.773438 C 8.570313 196.382813 8.660156 197.015625 8.496094 197.621094 C 7.953125 198.351563 6.9375 198.101563 6.160156 198.050781 C 5.78125 197.757813 5.28125 197.40625 5.304688 196.867188 C 5.230469 196.144531 5.785156 195.570313 6.324219 195.183594 "/>
</g>
<g clip-path="url(#clip3)" clip-rule="nonzero">
<path style=" stroke:none;fill-rule:nonzero;fill:rgb(32.199097%,14.099121%,19.999695%);fill-opacity:1;" d="M 9.992188 195.574219 C 10.789063 194.765625 12.046875 195.125 12.8125 195.792969 C 12.777344 196.527344 13.089844 197.488281 12.359375 197.992188 C 11.65625 198.1875 10.910156 198.074219 10.1875 198.101563 C 9.609375 197.40625 9.21875 196.285156 9.992188 195.574219 "/>
</g>
<g clip-path="url(#clip4)" clip-rule="nonzero">
<path style=" stroke:none;fill-rule:nonzero;fill:rgb(32.199097%,14.099121%,19.999695%);fill-opacity:1;" d="M 118.621094 198.097656 C 117.554688 197.449219 118.007813 195.46875 119.261719 195.398438 C 120.003906 195.273438 120.816406 195.417969 121.234375 196.101563 C 121.320313 196.636719 121.292969 197.179688 121.296875 197.714844 C 120.570313 198.332031 119.472656 198.683594 118.621094 198.097656 "/>
</g>
<g clip-path="url(#clip5)" clip-rule="nonzero">
<path style=" stroke:none;fill-rule:nonzero;fill:rgb(32.199097%,14.099121%,19.999695%);fill-opacity:1;" d="M 123.035156 195.476563 C 123.878906 195.3125 124.972656 195.246094 125.480469 196.101563 C 125.558594 196.636719 125.53125 197.179688 125.535156 197.722656 C 124.828125 198.34375 123.695313 198.691406 122.867188 198.121094 C 121.980469 197.472656 122.121094 196.035156 123.035156 195.476563 "/>
</g>
<path style=" stroke:none;fill-rule:nonzero;fill:rgb(75.698853%,25.498962%,8.999634%);fill-opacity:1;" d="M 186.722656 50.804688 L 179.539063 50.804688 L 179.539063 54.277344 L 183.296875 54.277344 C 185.15625 54.277344 187.019531 54.367188 188.859375 54.644531 C 195.820313 55.703125 202.972656 59.050781 205.292969 68.957031 C 205.722656 70.785156 205.996094 72.824219 206.0625 75.128906 C 206.0625 84.796875 200.484375 94.703125 189.5625 94.703125 C 183.070313 94.703125 181.367188 90.488281 181.367188 89.011719 C 178.75 89.125 176.703125 91.171875 176.703125 93.21875 C 176.703125 98.117188 182.964844 100.046875 188.878906 100.046875 C 203.332031 100.046875 214.597656 88.898438 214.597656 74.667969 C 214.597656 61.699219 207.886719 50.804688 186.722656 50.804688 "/>
<path style=" stroke:none;fill-rule:nonzero;fill:rgb(32.199097%,14.099121%,19.999695%);fill-opacity:1;" d="M 2.898438 159.527344 L 2.898438 164.574219 L 0 164.574219 L 0 150.214844 L 4.898438 150.214844 C 6.3125 150.214844 7.445313 150.652344 8.292969 151.535156 C 9.136719 152.417969 9.5625 153.5625 9.5625 154.972656 C 9.5625 156.378906 9.140625 157.492188 8.308594 158.300781 C 7.472656 159.117188 6.3125 159.527344 4.835938 159.527344 Z M 2.898438 157.109375 L 4.898438 157.109375 C 5.445313 157.109375 5.871094 156.925781 6.175781 156.566406 C 6.476563 156.207031 6.625 155.683594 6.625 154.992188 C 6.625 154.273438 6.476563 153.699219 6.167969 153.277344 C 5.859375 152.851563 5.441406 152.640625 4.921875 152.636719 L 2.898438 152.636719 "/>
<path style=" stroke:none;fill-rule:nonzero;fill:rgb(32.199097%,14.099121%,19.999695%);fill-opacity:1;" d="M 16.015625 164.769531 C 14.582031 164.769531 13.464844 164.34375 12.664063 163.488281 C 11.859375 162.636719 11.460938 161.410156 11.460938 159.816406 L 11.460938 158.96875 C 11.460938 157.285156 11.828125 155.984375 12.5625 155.074219 C 13.300781 154.15625 14.355469 153.703125 15.730469 153.703125 C 17.074219 153.703125 18.082031 154.132813 18.757813 154.988281 C 19.433594 155.847656 19.78125 157.113281 19.792969 158.792969 L 19.792969 160.164063 L 14.238281 160.164063 C 14.277344 160.953125 14.453125 161.535156 14.761719 161.902344 C 15.074219 162.269531 15.546875 162.453125 16.195313 162.453125 C 17.132813 162.453125 17.90625 162.132813 18.53125 161.492188 L 19.625 163.1875 C 19.285156 163.65625 18.789063 164.042969 18.136719 164.332031 C 17.488281 164.625 16.78125 164.769531 16.015625 164.769531 M 14.257813 158.222656 L 17.050781 158.222656 L 17.050781 157.964844 C 17.039063 157.328125 16.933594 156.84375 16.738281 156.515625 C 16.539063 156.1875 16.195313 156.023438 15.710938 156.023438 C 15.226563 156.023438 14.871094 156.195313 14.648438 156.546875 C 14.429688 156.894531 14.296875 157.449219 14.257813 158.222656 "/>
<path style=" stroke:none;fill-rule:nonzero;fill:rgb(32.199097%,14.099121%,19.999695%);fill-opacity:1;" d="M 26.28125 151.277344 L 26.28125 153.898438 L 27.710938 153.898438 L 27.710938 155.992188 L 26.28125 155.992188 L 26.28125 161.300781 C 26.28125 161.722656 26.339844 162.007813 26.453125 162.167969 C 26.566406 162.328125 26.789063 162.40625 27.121094 162.40625 C 27.394531 162.40625 27.609375 162.382813 27.777344 162.335938 L 27.761719 164.507813 C 27.289063 164.683594 26.773438 164.769531 26.222656 164.769531 C 24.421875 164.769531 23.507813 163.738281 23.488281 161.671875 L 23.488281 155.992188 L 22.257813 155.992188 L 22.257813 153.898438 L 23.488281 153.898438 L 23.488281 151.277344 "/>
<path style=" stroke:none;fill-rule:nonzero;fill:rgb(32.199097%,14.099121%,19.999695%);fill-opacity:1;" d="M 35.578125 156.597656 L 34.652344 156.515625 C 33.890625 156.515625 33.371094 156.851563 33.101563 157.523438 L 33.101563 164.574219 L 30.300781 164.574219 L 30.300781 153.898438 L 32.9375 153.898438 L 33.011719 155.058594 C 33.453125 154.152344 34.058594 153.707031 34.839844 153.707031 C 35.152344 153.707031 35.410156 153.75 35.605469 153.835938 "/>
<path style=" stroke:none;fill-rule:nonzero;fill:rgb(32.199097%,14.099121%,19.999695%);fill-opacity:1;" d="M 42.855469 164.574219 C 42.773438 164.414063 42.695313 164.136719 42.617188 163.75 C 42.113281 164.433594 41.4375 164.773438 40.589844 164.773438 C 39.691406 164.773438 38.945313 164.480469 38.359375 163.886719 C 37.773438 163.292969 37.480469 162.527344 37.480469 161.589844 C 37.480469 160.46875 37.832031 159.601563 38.546875 158.992188 C 39.261719 158.378906 40.289063 158.070313 41.628906 158.054688 L 42.476563 158.054688 L 42.476563 157.195313 C 42.476563 156.71875 42.398438 156.378906 42.230469 156.179688 C 42.066406 155.984375 41.832031 155.886719 41.511719 155.886719 C 40.816406 155.886719 40.46875 156.292969 40.46875 157.109375 L 37.675781 157.109375 C 37.675781 156.128906 38.042969 155.308594 38.785156 154.667969 C 39.523438 154.027344 40.460938 153.707031 41.589844 153.707031 C 42.761719 153.707031 43.664063 154.007813 44.3125 154.617188 C 44.945313 155.226563 45.273438 156.097656 45.273438 157.230469 L 45.273438 162.246094 C 45.285156 163.167969 45.414063 163.890625 45.660156 164.410156 L 45.660156 164.574219 Z M 41.207031 162.582031 C 41.515625 162.582031 41.777344 162.519531 41.996094 162.398438 C 42.214844 162.269531 42.371094 162.125 42.476563 161.953125 L 42.476563 159.734375 L 41.808594 159.734375 C 41.335938 159.734375 40.960938 159.882813 40.6875 160.1875 C 40.417969 160.488281 40.28125 160.894531 40.28125 161.394531 C 40.28125 162.191406 40.589844 162.582031 41.207031 162.582031 "/>
<path style=" stroke:none;fill-rule:nonzero;fill:rgb(32.199097%,14.099121%,19.999695%);fill-opacity:1;" d="M 54.230469 164.574219 L 54.230469 150.214844 L 58.027344 150.214844 C 59.703125 150.214844 61.039063 150.746094 62.035156 151.8125 C 63.035156 152.878906 63.539063 154.339844 63.558594 156.1875 L 63.558594 158.515625 C 63.558594 160.40625 63.0625 161.886719 62.066406 162.960938 C 61.070313 164.042969 59.699219 164.574219 57.949219 164.574219 Z M 57.128906 152.628906 L 57.128906 162.167969 L 57.996094 162.167969 C 58.964844 162.167969 59.644531 161.914063 60.042969 161.398438 C 60.429688 160.898438 60.640625 160.015625 60.660156 158.769531 L 60.660156 156.273438 C 60.660156 154.925781 60.472656 153.992188 60.097656 153.464844 C 59.71875 152.933594 59.085938 152.65625 58.1875 152.628906 "/>
<path style=" stroke:none;fill-rule:nonzero;fill:rgb(32.199097%,14.099121%,19.999695%);fill-opacity:1;" d="M 70.886719 164.769531 C 69.449219 164.769531 68.332031 164.34375 67.535156 163.488281 C 66.726563 162.636719 66.332031 161.410156 66.332031 159.816406 L 66.332031 158.96875 C 66.332031 157.285156 66.699219 155.984375 67.433594 155.074219 C 68.167969 154.15625 69.226563 153.703125 70.601563 153.703125 C 71.941406 153.703125 72.949219 154.132813 73.625 154.988281 C 74.304688 155.847656 74.652344 157.113281 74.664063 158.792969 L 74.664063 160.164063 L 69.109375 160.164063 C 69.148438 160.953125 69.324219 161.535156 69.632813 161.902344 C 69.941406 162.269531 70.421875 162.453125 71.066406 162.453125 C 72 162.453125 72.777344 162.132813 73.402344 161.492188 L 74.496094 163.1875 C 74.15625 163.65625 73.660156 164.042969 73.003906 164.332031 C 72.351563 164.625 71.652344 164.769531 70.886719 164.769531 M 69.128906 158.222656 L 71.921875 158.222656 L 71.921875 157.964844 C 71.910156 157.328125 71.804688 156.84375 71.609375 156.515625 C 71.40625 156.1875 71.066406 156.023438 70.582031 156.023438 C 70.09375 156.023438 69.738281 156.195313 69.519531 156.546875 C 69.296875 156.894531 69.167969 157.449219 69.128906 158.222656 "/>
<path style=" stroke:none;fill-rule:nonzero;fill:rgb(32.199097%,14.099121%,19.999695%);fill-opacity:1;" d="M 80.683594 160.632813 L 82.035156 153.902344 L 84.949219 153.902344 L 82.015625 164.578125 L 79.355469 164.578125 L 76.417969 153.902344 L 79.335938 153.902344 "/>
<path style=" stroke:none;fill-rule:nonzero;fill:rgb(32.199097%,14.099121%,19.999695%);fill-opacity:1;" d="M 91.515625 164.769531 C 90.074219 164.769531 88.960938 164.34375 88.164063 163.488281 C 87.355469 162.636719 86.953125 161.410156 86.953125 159.816406 L 86.953125 158.96875 C 86.953125 157.285156 87.328125 155.984375 88.0625 155.074219 C 88.796875 154.15625 89.855469 153.703125 91.230469 153.703125 C 92.566406 153.703125 93.578125 154.132813 94.253906 154.988281 C 94.929688 155.847656 95.277344 157.113281 95.292969 158.792969 L 95.292969 160.164063 L 89.738281 160.164063 C 89.777344 160.953125 89.949219 161.535156 90.261719 161.902344 C 90.570313 162.269531 91.046875 162.453125 91.695313 162.453125 C 92.625 162.453125 93.402344 162.132813 94.03125 161.492188 L 95.125 163.1875 C 94.78125 163.65625 94.289063 164.042969 93.632813 164.332031 C 92.980469 164.625 92.273438 164.769531 91.515625 164.769531 M 89.753906 158.222656 L 92.550781 158.222656 L 92.550781 157.964844 C 92.539063 157.328125 92.429688 156.84375 92.234375 156.515625 C 92.035156 156.1875 91.695313 156.023438 91.207031 156.023438 C 90.722656 156.023438 90.367188 156.195313 90.148438 156.546875 C 89.925781 156.894531 89.796875 157.449219 89.753906 158.222656 "/>
<path style=" stroke:none;fill-rule:nonzero;fill:rgb(32.199097%,14.099121%,19.999695%);fill-opacity:1;" d="M 98.070313 164.578125 L 100.875 164.578125 L 100.875 149.425781 L 98.070313 149.425781 Z M 98.070313 164.578125 "/>
<path style=" stroke:none;fill-rule:nonzero;fill:rgb(32.199097%,14.099121%,19.999695%);fill-opacity:1;" d="M 103.773438 158.894531 C 103.773438 157.28125 104.160156 156.007813 104.921875 155.082031 C 105.683594 154.167969 106.734375 153.707031 108.085938 153.707031 C 109.445313 153.707031 110.507813 154.167969 111.273438 155.082031 C 112.035156 156.007813 112.417969 157.285156 112.417969 158.914063 L 112.417969 159.59375 C 112.417969 161.21875 112.039063 162.488281 111.285156 163.402344 C 110.523438 164.316406 109.464844 164.769531 108.109375 164.769531 C 106.734375 164.769531 105.675781 164.3125 104.910156 163.398438 C 104.15625 162.476563 103.773438 161.203125 103.773438 159.574219 Z M 106.574219 159.59375 C 106.574219 161.503906 107.085938 162.453125 108.109375 162.453125 C 109.042969 162.453125 109.554688 161.660156 109.621094 160.066406 L 109.632813 158.894531 C 109.632813 157.925781 109.5 157.203125 109.230469 156.726563 C 108.964844 156.261719 108.582031 156.023438 108.085938 156.023438 C 107.609375 156.023438 107.242188 156.261719 106.976563 156.726563 C 106.714844 157.203125 106.574219 157.925781 106.574219 158.894531 "/>
<path style=" stroke:none;fill-rule:nonzero;fill:rgb(32.199097%,14.099121%,19.999695%);fill-opacity:1;" d="M 123.539063 159.574219 C 123.539063 161.25 123.253906 162.535156 122.675781 163.433594 C 122.105469 164.324219 121.242188 164.773438 120.101563 164.773438 C 119.238281 164.773438 118.542969 164.421875 118.019531 163.71875 L 118.019531 168.675781 L 115.222656 168.675781 L 115.222656 153.898438 L 117.808594 153.898438 L 117.90625 154.878906 C 118.441406 154.09375 119.167969 153.707031 120.085938 153.707031 C 121.222656 153.707031 122.078125 154.117188 122.660156 154.945313 C 123.234375 155.777344 123.523438 157.046875 123.539063 158.757813 Z M 120.753906 158.871094 C 120.753906 157.839844 120.640625 157.113281 120.410156 156.683594 C 120.191406 156.257813 119.804688 156.042969 119.265625 156.042969 C 118.699219 156.042969 118.277344 156.28125 118.019531 156.761719 L 118.019531 161.765625 C 118.265625 162.222656 118.691406 162.453125 119.289063 162.453125 C 119.839844 162.453125 120.222656 162.21875 120.4375 161.753906 C 120.648438 161.289063 120.753906 160.5625 120.753906 159.574219 "/>
<path style=" stroke:none;fill-rule:nonzero;fill:rgb(32.199097%,14.099121%,19.999695%);fill-opacity:1;" d="M 128.921875 153.902344 L 129 154.886719 C 129.628906 154.097656 130.449219 153.707031 131.472656 153.707031 C 132.542969 153.707031 133.292969 154.179688 133.734375 155.144531 C 134.34375 154.179688 135.21875 153.707031 136.347656 153.707031 C 138.21875 153.707031 139.175781 155 139.21875 157.578125 L 139.21875 164.578125 L 136.429688 164.578125 L 136.429688 157.757813 C 136.429688 157.140625 136.34375 156.699219 136.171875 156.4375 C 136 156.171875 135.710938 156.042969 135.300781 156.042969 C 134.785156 156.042969 134.394531 156.363281 134.140625 157 L 134.15625 157.335938 L 134.15625 164.578125 L 131.371094 164.578125 L 131.371094 157.777344 C 131.371094 157.167969 131.28125 156.726563 131.117188 156.449219 C 130.957031 156.175781 130.664063 156.042969 130.242188 156.042969 C 129.761719 156.042969 129.382813 156.304688 129.097656 156.820313 L 129.097656 164.578125 L 126.308594 164.578125 L 126.308594 153.902344 "/>
<path style=" stroke:none;fill-rule:nonzero;fill:rgb(32.199097%,14.099121%,19.999695%);fill-opacity:1;" d="M 146.664063 164.769531 C 145.222656 164.769531 144.109375 164.34375 143.3125 163.488281 C 142.503906 162.636719 142.105469 161.410156 142.105469 159.816406 L 142.105469 158.96875 C 142.105469 157.285156 142.476563 155.984375 143.210938 155.074219 C 143.945313 154.15625 145.003906 153.703125 146.378906 153.703125 C 147.71875 153.703125 148.726563 154.132813 149.402344 154.988281 C 150.085938 155.847656 150.425781 157.113281 150.441406 158.792969 L 150.441406 160.164063 L 144.890625 160.164063 C 144.925781 160.953125 145.097656 161.535156 145.410156 161.902344 C 145.71875 162.269531 146.199219 162.453125 146.84375 162.453125 C 147.777344 162.453125 148.554688 162.132813 149.179688 161.492188 L 150.273438 163.1875 C 149.933594 163.65625 149.4375 164.042969 148.785156 164.332031 C 148.136719 164.625 147.425781 164.769531 146.664063 164.769531 M 144.910156 158.222656 L 147.699219 158.222656 L 147.699219 157.964844 C 147.6875 157.328125 147.582031 156.84375 147.386719 156.515625 C 147.183594 156.1875 146.84375 156.023438 146.355469 156.023438 C 145.871094 156.023438 145.519531 156.195313 145.296875 156.546875 C 145.078125 156.894531 144.945313 157.449219 144.910156 158.222656 "/>
<path style=" stroke:none;fill-rule:nonzero;fill:rgb(32.199097%,14.099121%,19.999695%);fill-opacity:1;" d="M 155.644531 153.902344 L 155.722656 154.957031 C 156.355469 154.121094 157.179688 153.707031 158.195313 153.707031 C 160.03125 153.707031 160.976563 154.992188 161.035156 157.554688 L 161.035156 164.578125 L 158.230469 164.578125 L 158.230469 157.765625 C 158.230469 157.164063 158.140625 156.726563 157.960938 156.449219 C 157.777344 156.175781 157.460938 156.042969 157.007813 156.042969 C 156.5 156.042969 156.105469 156.304688 155.820313 156.820313 L 155.820313 164.578125 L 153.023438 164.578125 L 153.023438 153.902344 "/>
<path style=" stroke:none;fill-rule:nonzero;fill:rgb(32.199097%,14.099121%,19.999695%);fill-opacity:1;" d="M 167.351563 151.277344 L 167.351563 153.898438 L 168.777344 153.898438 L 168.777344 155.992188 L 167.351563 155.992188 L 167.351563 161.300781 C 167.351563 161.722656 167.40625 162.007813 167.519531 162.167969 C 167.632813 162.328125 167.859375 162.40625 168.191406 162.40625 C 168.457031 162.40625 168.679688 162.382813 168.851563 162.335938 L 168.828125 164.507813 C 168.355469 164.683594 167.84375 164.769531 167.289063 164.769531 C 165.488281 164.769531 164.574219 163.738281 164.554688 161.671875 L 164.554688 155.992188 L 163.324219 155.992188 L 163.324219 153.898438 L 164.554688 153.898438 L 164.554688 151.277344 "/>
<path style=" stroke:none;fill-rule:nonzero;fill:rgb(32.199097%,14.099121%,19.999695%);fill-opacity:1;" d="M 176.800781 160.710938 C 176.800781 160.03125 176.957031 159.417969 177.261719 158.871094 C 177.566406 158.324219 178.140625 157.695313 178.980469 157.015625 C 178.621094 156.4375 178.335938 155.894531 178.121094 155.386719 C 177.910156 154.875 177.808594 154.347656 177.808594 153.800781 C 177.808594 152.675781 178.117188 151.765625 178.742188 151.066406 C 179.371094 150.363281 180.203125 150.015625 181.253906 150.015625 C 182.1875 150.015625 182.964844 150.339844 183.570313 150.984375 C 184.1875 151.636719 184.484375 152.429688 184.484375 153.367188 C 184.484375 154.617188 183.964844 155.660156 182.921875 156.5 L 182.125 157.140625 L 183.972656 159.714844 C 184.203125 159.039063 184.320313 158.304688 184.320313 157.523438 L 186.675781 157.523438 C 186.675781 159.371094 186.3125 160.855469 185.589844 161.980469 L 187.445313 164.574219 L 184.277344 164.574219 L 183.746094 163.828125 C 182.898438 164.457031 181.921875 164.777344 180.804688 164.777344 C 179.59375 164.777344 178.621094 164.402344 177.894531 163.660156 C 177.171875 162.914063 176.800781 161.929688 176.800781 160.710938 M 180.953125 162.472656 C 181.472656 162.472656 181.964844 162.300781 182.425781 161.960938 L 180.152344 158.746094 L 180.097656 158.796875 C 179.765625 159.304688 179.601563 159.890625 179.601563 160.546875 C 179.601563 161.097656 179.734375 161.5625 179.988281 161.929688 C 180.253906 162.289063 180.574219 162.472656 180.953125 162.472656 M 180.289063 153.75 C 180.289063 154.222656 180.515625 154.792969 180.96875 155.472656 L 181.421875 155.117188 C 181.703125 154.90625 181.898438 154.6875 182.015625 154.457031 C 182.132813 154.234375 182.195313 153.925781 182.195313 153.546875 C 182.195313 153.203125 182.105469 152.921875 181.914063 152.683594 C 181.730469 152.449219 181.503906 152.335938 181.238281 152.335938 C 180.953125 152.335938 180.722656 152.464844 180.550781 152.722656 C 180.378906 152.984375 180.289063 153.324219 180.289063 153.75 "/>
<path style=" stroke:none;fill-rule:nonzero;fill:rgb(32.199097%,14.099121%,19.999695%);fill-opacity:1;" d="M 204.453125 152.628906 L 200.902344 152.628906 L 200.902344 164.578125 L 197.992188 164.578125 L 197.992188 152.628906 L 194.503906 152.628906 L 194.503906 150.210938 L 204.453125 150.210938 "/>
<path style=" stroke:none;fill-rule:nonzero;fill:rgb(32.199097%,14.099121%,19.999695%);fill-opacity:1;" d="M 204.671875 158.894531 C 204.671875 157.28125 205.058594 156.007813 205.816406 155.082031 C 206.585938 154.167969 207.632813 153.707031 208.984375 153.707031 C 210.34375 153.707031 211.40625 154.167969 212.171875 155.082031 C 212.933594 156.007813 213.316406 157.285156 213.316406 158.914063 L 213.316406 159.59375 C 213.316406 161.21875 212.9375 162.488281 212.183594 163.402344 C 211.421875 164.316406 210.367188 164.769531 209.007813 164.769531 C 207.632813 164.769531 206.574219 164.3125 205.8125 163.398438 C 205.054688 162.476563 204.671875 161.203125 204.671875 159.574219 Z M 207.472656 159.59375 C 207.472656 161.503906 207.984375 162.453125 209.007813 162.453125 C 209.949219 162.453125 210.453125 161.660156 210.519531 160.066406 L 210.53125 158.894531 C 210.53125 157.925781 210.398438 157.203125 210.128906 156.726563 C 209.863281 156.261719 209.480469 156.023438 208.984375 156.023438 C 208.507813 156.023438 208.140625 156.261719 207.875 156.726563 C 207.609375 157.203125 207.472656 157.925781 207.472656 158.894531 "/>
<path style=" stroke:none;fill-rule:nonzero;fill:rgb(32.199097%,14.099121%,19.999695%);fill-opacity:1;" d="M 221.371094 163.597656 C 220.792969 164.378906 220.015625 164.769531 219.042969 164.769531 C 218.058594 164.769531 217.320313 164.4375 216.8125 163.757813 C 216.304688 163.085938 216.058594 162.105469 216.058594 160.8125 L 216.058594 153.902344 L 218.847656 153.902344 L 218.847656 160.882813 C 218.859375 161.925781 219.203125 162.445313 219.882813 162.445313 C 220.515625 162.445313 220.980469 162.164063 221.261719 161.613281 L 221.261719 153.902344 L 224.074219 153.902344 L 224.074219 164.574219 L 221.449219 164.574219 "/>
<path style=" stroke:none;fill-rule:nonzero;fill:rgb(32.199097%,14.099121%,19.999695%);fill-opacity:1;" d="M 232.402344 156.597656 L 231.480469 156.515625 C 230.714844 156.515625 230.195313 156.851563 229.929688 157.523438 L 229.929688 164.574219 L 227.125 164.574219 L 227.125 153.898438 L 229.761719 153.898438 L 229.835938 155.058594 C 230.28125 154.152344 230.886719 153.707031 231.667969 153.707031 C 231.976563 153.707031 232.234375 153.75 232.433594 153.835938 "/>
<path style=" stroke:none;fill-rule:nonzero;fill:rgb(32.199097%,14.099121%,19.999695%);fill-opacity:1;" d="M 234.90625 151.140625 C 234.90625 150.707031 235.042969 150.351563 235.324219 150.078125 C 235.59375 149.796875 235.960938 149.660156 236.425781 149.660156 C 236.882813 149.660156 237.253906 149.796875 237.527344 150.078125 C 237.804688 150.351563 237.941406 150.707031 237.941406 151.140625 C 237.941406 151.570313 237.804688 151.921875 237.53125 152.207031 C 237.261719 152.488281 236.890625 152.628906 236.425781 152.628906 C 235.953125 152.628906 235.585938 152.488281 235.3125 152.207031 C 235.039063 151.921875 234.90625 151.570313 234.90625 151.140625 M 237.835938 164.574219 L 235.035156 164.574219 L 235.035156 153.898438 L 237.835938 153.898438 "/>
<path style=" stroke:none;fill-rule:nonzero;fill:rgb(32.199097%,14.099121%,19.999695%);fill-opacity:1;" d="M 245.792969 161.714844 C 245.792969 161.476563 245.679688 161.265625 245.449219 161.058594 C 245.226563 160.859375 244.71875 160.585938 243.9375 160.25 C 242.785156 159.78125 241.996094 159.296875 241.566406 158.792969 C 241.136719 158.296875 240.917969 157.675781 240.917969 156.929688 C 240.917969 156 241.261719 155.226563 241.933594 154.621094 C 242.605469 154.007813 243.496094 153.703125 244.609375 153.703125 C 245.777344 153.703125 246.714844 154.003906 247.417969 154.617188 C 248.121094 155.21875 248.476563 156.03125 248.476563 157.050781 L 245.683594 157.050781 C 245.683594 156.183594 245.320313 155.75 244.597656 155.75 C 244.304688 155.75 244.058594 155.839844 243.867188 156.023438 C 243.675781 156.210938 243.582031 156.460938 243.582031 156.792969 C 243.582031 157.03125 243.6875 157.242188 243.902344 157.417969 C 244.109375 157.597656 244.605469 157.859375 245.390625 158.199219 C 246.523438 158.613281 247.332031 159.082031 247.800781 159.601563 C 248.269531 160.121094 248.507813 160.789063 248.507813 161.613281 C 248.507813 162.558594 248.148438 163.332031 247.429688 163.90625 C 246.714844 164.488281 245.773438 164.773438 244.609375 164.773438 C 243.824219 164.773438 243.132813 164.621094 242.539063 164.3125 C 241.941406 164.007813 241.46875 163.582031 241.128906 163.035156 C 240.792969 162.492188 240.621094 161.902344 240.621094 161.273438 L 243.273438 161.273438 C 243.285156 161.757813 243.402344 162.125 243.617188 162.367188 C 243.828125 162.609375 244.179688 162.734375 244.664063 162.734375 C 245.417969 162.734375 245.792969 162.390625 245.792969 161.714844 "/>
<path style=" stroke:none;fill-rule:nonzero;fill:rgb(32.199097%,14.099121%,19.999695%);fill-opacity:1;" d="M 253.933594 153.902344 L 254.011719 154.886719 C 254.640625 154.097656 255.464844 153.707031 256.484375 153.707031 C 257.558594 153.707031 258.304688 154.179688 258.746094 155.144531 C 259.355469 154.179688 260.230469 153.707031 261.359375 153.707031 C 263.230469 153.707031 264.1875 155 264.234375 157.578125 L 264.234375 164.578125 L 261.4375 164.578125 L 261.4375 157.757813 C 261.4375 157.140625 261.351563 156.699219 261.183594 156.4375 C 261.011719 156.171875 260.726563 156.042969 260.316406 156.042969 C 259.796875 156.042969 259.40625 156.363281 259.152344 157 L 259.171875 157.335938 L 259.171875 164.578125 L 256.382813 164.578125 L 256.382813 157.777344 C 256.382813 157.167969 256.296875 156.726563 256.132813 156.449219 C 255.96875 156.175781 255.675781 156.042969 255.253906 156.042969 C 254.773438 156.042969 254.394531 156.304688 254.109375 156.820313 L 254.109375 164.578125 L 251.320313 164.578125 L 251.320313 153.902344 "/>
<path style=" stroke:none;fill-rule:nonzero;fill:rgb(32.199097%,14.099121%,19.999695%);fill-opacity:1;" d="M 277.582031 159.324219 L 276.140625 159.324219 L 276.140625 164.570313 L 273.238281 164.570313 L 273.238281 150.210938 L 277.867188 150.210938 C 279.320313 150.210938 280.445313 150.589844 281.238281 151.339844 C 282.027344 152.097656 282.425781 153.160156 282.425781 154.550781 C 282.425781 156.457031 281.730469 157.792969 280.34375 158.554688 L 282.859375 164.4375 L 282.859375 164.570313 L 279.742188 164.570313 Z M 276.140625 156.90625 L 277.789063 156.90625 C 278.367188 156.90625 278.800781 156.714844 279.089844 156.332031 C 279.378906 155.945313 279.519531 155.4375 279.519531 154.789063 C 279.519531 153.347656 278.964844 152.628906 277.839844 152.628906 L 276.140625 152.628906 "/>
<path style=" stroke:none;fill-rule:nonzero;fill:rgb(32.199097%,14.099121%,19.999695%);fill-opacity:1;" d="M 289.65625 164.769531 C 288.226563 164.769531 287.105469 164.34375 286.304688 163.488281 C 285.503906 162.636719 285.101563 161.410156 285.101563 159.816406 L 285.101563 158.96875 C 285.101563 157.285156 285.46875 155.984375 286.199219 155.074219 C 286.941406 154.15625 287.996094 153.703125 289.371094 153.703125 C 290.714844 153.703125 291.726563 154.132813 292.398438 154.988281 C 293.074219 155.847656 293.421875 157.113281 293.4375 158.792969 L 293.4375 160.164063 L 287.886719 160.164063 C 287.921875 160.953125 288.09375 161.535156 288.40625 161.902344 C 288.71875 162.269531 289.191406 162.453125 289.835938 162.453125 C 290.773438 162.453125 291.550781 162.132813 292.175781 161.492188 L 293.265625 163.1875 C 292.929688 163.65625 292.433594 164.042969 291.78125 164.332031 C 291.128906 164.625 290.421875 164.769531 289.65625 164.769531 M 287.90625 158.222656 L 290.691406 158.222656 L 290.691406 157.964844 C 290.679688 157.328125 290.574219 156.84375 290.378906 156.515625 C 290.179688 156.1875 289.835938 156.023438 289.351563 156.023438 C 288.867188 156.023438 288.511719 156.195313 288.289063 156.546875 C 288.074219 156.894531 287.9375 157.449219 287.90625 158.222656 "/>
<path style=" stroke:none;fill-rule:nonzero;fill:rgb(32.199097%,14.099121%,19.999695%);fill-opacity:1;" d="M 295.753906 158.914063 C 295.753906 157.167969 296.066406 155.859375 296.699219 155 C 297.328125 154.136719 298.214844 153.707031 299.355469 153.707031 C 300.320313 153.707031 301.0625 154.082031 301.589844 154.851563 L 301.699219 153.902344 L 304.214844 153.902344 L 304.214844 164.574219 C 304.214844 165.9375 303.839844 166.980469 303.074219 167.703125 C 302.304688 168.421875 301.214844 168.78125 299.785156 168.78125 C 299.203125 168.78125 298.585938 168.664063 297.941406 168.429688 C 297.296875 168.199219 296.8125 167.898438 296.503906 167.535156 L 297.441406 165.605469 C 297.699219 165.878906 298.042969 166.105469 298.464844 166.28125 C 298.886719 166.457031 299.28125 166.539063 299.660156 166.539063 C 300.28125 166.539063 300.730469 166.390625 301.003906 166.09375 C 301.277344 165.792969 301.414063 165.308594 301.421875 164.648438 L 301.421875 163.730469 C 300.886719 164.425781 300.199219 164.773438 299.34375 164.773438 C 298.199219 164.773438 297.324219 164.328125 296.699219 163.449219 C 296.082031 162.566406 295.765625 161.316406 295.753906 159.703125 Z M 298.542969 159.617188 C 298.542969 160.601563 298.671875 161.320313 298.929688 161.773438 C 299.1875 162.222656 299.59375 162.445313 300.152344 162.445313 C 300.722656 162.445313 301.148438 162.234375 301.421875 161.828125 L 301.421875 156.722656 C 301.128906 156.273438 300.710938 156.042969 300.167969 156.042969 C 299.617188 156.042969 299.207031 156.273438 298.941406 156.722656 C 298.675781 157.175781 298.542969 157.90625 298.542969 158.914063 "/>
<path style=" stroke:none;fill-rule:nonzero;fill:rgb(32.199097%,14.099121%,19.999695%);fill-opacity:1;" d="M 307.320313 151.140625 C 307.320313 150.707031 307.457031 150.351563 307.734375 150.078125 C 308.007813 149.796875 308.375 149.660156 308.839844 149.660156 C 309.300781 149.660156 309.667969 149.796875 309.941406 150.078125 C 310.21875 150.351563 310.355469 150.707031 310.355469 151.140625 C 310.355469 151.570313 310.222656 151.921875 309.945313 152.207031 C 309.675781 152.488281 309.304688 152.628906 308.839844 152.628906 C 308.367188 152.628906 308 152.488281 307.722656 152.207031 C 307.457031 151.921875 307.320313 151.570313 307.320313 151.140625 M 310.253906 164.574219 L 307.453125 164.574219 L 307.453125 153.898438 L 310.253906 153.898438 "/>
<path style=" stroke:none;fill-rule:nonzero;fill:rgb(32.199097%,14.099121%,19.999695%);fill-opacity:1;" d="M 313.15625 158.894531 C 313.15625 157.28125 313.539063 156.007813 314.300781 155.082031 C 315.066406 154.167969 316.113281 153.707031 317.46875 153.707031 C 318.824219 153.707031 319.886719 154.167969 320.652344 155.082031 C 321.414063 156.007813 321.796875 157.285156 321.796875 158.914063 L 321.796875 159.59375 C 321.796875 161.21875 321.421875 162.488281 320.664063 163.402344 C 319.902344 164.316406 318.847656 164.769531 317.488281 164.769531 C 316.113281 164.769531 315.054688 164.3125 314.292969 163.398438 C 313.535156 162.476563 313.15625 161.203125 313.15625 159.574219 Z M 315.953125 159.59375 C 315.953125 161.503906 316.464844 162.453125 317.488281 162.453125 C 318.425781 162.453125 318.933594 161.660156 319 160.066406 L 319.015625 158.894531 C 319.015625 157.925781 318.878906 157.203125 318.609375 156.726563 C 318.339844 156.261719 317.960938 156.023438 317.46875 156.023438 C 316.992188 156.023438 316.621094 156.261719 316.355469 156.726563 C 316.09375 157.203125 315.953125 157.925781 315.953125 158.894531 "/>
<path style=" stroke:none;fill-rule:nonzero;fill:rgb(32.199097%,14.099121%,19.999695%);fill-opacity:1;" d="M 327.15625 153.902344 L 327.234375 154.957031 C 327.867188 154.121094 328.691406 153.707031 329.710938 153.707031 C 331.542969 153.707031 332.492188 154.992188 332.546875 157.554688 L 332.546875 164.578125 L 329.742188 164.578125 L 329.742188 157.765625 C 329.742188 157.164063 329.644531 156.726563 329.46875 156.449219 C 329.285156 156.175781 328.972656 156.042969 328.519531 156.042969 C 328.011719 156.042969 327.617188 156.304688 327.335938 156.820313 L 327.335938 164.578125 L 324.535156 164.578125 L 324.535156 153.902344 "/>
<path style=" stroke:none;fill-rule:nonzero;fill:rgb(32.199097%,14.099121%,19.999695%);fill-opacity:1;" d="M 348.335938 161.632813 L 344.378906 161.632813 L 343.613281 164.570313 L 340.539063 164.570313 L 345.03125 150.210938 L 347.683594 150.210938 L 352.199219 164.570313 L 349.109375 164.570313 Z M 345.015625 159.214844 L 347.695313 159.214844 L 346.355469 154.097656 "/>
<path style=" stroke:none;fill-rule:nonzero;fill:rgb(32.199097%,14.099121%,19.999695%);fill-opacity:1;" d="M 359.617188 163.597656 C 359.035156 164.378906 358.261719 164.769531 357.289063 164.769531 C 356.308594 164.769531 355.566406 164.4375 355.0625 163.757813 C 354.550781 163.085938 354.300781 162.105469 354.300781 160.8125 L 354.300781 153.902344 L 357.089844 153.902344 L 357.089844 160.882813 C 357.105469 161.925781 357.453125 162.445313 358.128906 162.445313 C 358.765625 162.445313 359.222656 162.164063 359.507813 161.613281 L 359.507813 153.902344 L 362.320313 153.902344 L 362.320313 164.574219 L 359.695313 164.574219 "/>
<path style=" stroke:none;fill-rule:nonzero;fill:rgb(32.199097%,14.099121%,19.999695%);fill-opacity:1;" d="M 368.632813 151.277344 L 368.632813 153.898438 L 370.0625 153.898438 L 370.0625 155.992188 L 368.632813 155.992188 L 368.632813 161.300781 C 368.632813 161.722656 368.6875 162.007813 368.800781 162.167969 C 368.921875 162.328125 369.140625 162.40625 369.472656 162.40625 C 369.738281 162.40625 369.960938 162.382813 370.132813 162.335938 L 370.109375 164.507813 C 369.640625 164.683594 369.125 164.769531 368.566406 164.769531 C 366.769531 164.769531 365.855469 163.738281 365.835938 161.671875 L 365.835938 155.992188 L 364.605469 155.992188 L 364.605469 153.898438 L 365.835938 153.898438 L 365.835938 151.277344 "/>
<path style=" stroke:none;fill-rule:nonzero;fill:rgb(32.199097%,14.099121%,19.999695%);fill-opacity:1;" d="M 375.382813 154.839844 C 375.992188 154.078125 376.730469 153.707031 377.613281 153.707031 C 378.582031 153.707031 379.328125 154.046875 379.828125 154.730469 C 380.339844 155.417969 380.59375 156.433594 380.597656 157.789063 L 380.597656 164.574219 L 377.800781 164.574219 L 377.800781 157.8125 C 377.800781 157.191406 377.699219 156.738281 377.503906 156.464844 C 377.3125 156.179688 376.996094 156.042969 376.5625 156.042969 C 376.058594 156.042969 375.660156 156.277344 375.382813 156.746094 L 375.382813 164.574219 L 372.585938 164.574219 L 372.585938 149.421875 L 375.382813 149.421875 "/>
<path style=" stroke:none;fill-rule:nonzero;fill:rgb(32.199097%,14.099121%,19.999695%);fill-opacity:1;" d="M 383.351563 158.894531 C 383.351563 157.28125 383.730469 156.007813 384.492188 155.082031 C 385.261719 154.167969 386.308594 153.707031 387.660156 153.707031 C 389.023438 153.707031 390.082031 154.167969 390.84375 155.082031 C 391.609375 156.007813 391.992188 157.285156 391.992188 158.914063 L 391.992188 159.59375 C 391.992188 161.21875 391.613281 162.488281 390.855469 163.402344 C 390.101563 164.316406 389.042969 164.769531 387.679688 164.769531 C 386.308594 164.769531 385.253906 164.3125 384.488281 163.398438 C 383.726563 162.476563 383.351563 161.203125 383.351563 159.574219 Z M 386.152344 159.59375 C 386.152344 161.503906 386.660156 162.453125 387.679688 162.453125 C 388.621094 162.453125 389.128906 161.660156 389.195313 160.066406 L 389.210938 158.894531 C 389.210938 157.925781 389.074219 157.203125 388.808594 156.726563 C 388.53125 156.261719 388.152344 156.023438 387.660156 156.023438 C 387.1875 156.023438 386.820313 156.261719 386.550781 156.726563 C 386.285156 157.203125 386.152344 157.925781 386.152344 158.894531 "/>
<path style=" stroke:none;fill-rule:nonzero;fill:rgb(32.199097%,14.099121%,19.999695%);fill-opacity:1;" d="M 400.0625 156.597656 L 399.136719 156.515625 C 398.378906 156.515625 397.859375 156.851563 397.589844 157.523438 L 397.589844 164.574219 L 394.785156 164.574219 L 394.785156 153.898438 L 397.421875 153.898438 L 397.496094 155.058594 C 397.9375 154.152344 398.546875 153.707031 399.320313 153.707031 C 399.636719 153.707031 399.898438 153.75 400.09375 153.835938 "/>
<path style=" stroke:none;fill-rule:nonzero;fill:rgb(32.199097%,14.099121%,19.999695%);fill-opacity:1;" d="M 402.5625 151.140625 C 402.5625 150.707031 402.703125 150.351563 402.980469 150.078125 C 403.253906 149.796875 403.625 149.660156 404.085938 149.660156 C 404.546875 149.660156 404.910156 149.796875 405.1875 150.078125 C 405.464844 150.351563 405.601563 150.707031 405.601563 151.140625 C 405.601563 151.570313 405.46875 151.921875 405.191406 152.207031 C 404.921875 152.488281 404.554688 152.628906 404.085938 152.628906 C 403.617188 152.628906 403.246094 152.488281 402.972656 152.207031 C 402.703125 151.921875 402.5625 151.570313 402.5625 151.140625 M 405.492188 164.574219 L 402.691406 164.574219 L 402.691406 153.898438 L 405.492188 153.898438 "/>
<path style=" stroke:none;fill-rule:nonzero;fill:rgb(32.199097%,14.099121%,19.999695%);fill-opacity:1;" d="M 411.972656 151.277344 L 411.972656 153.898438 L 413.402344 153.898438 L 413.402344 155.992188 L 411.972656 155.992188 L 411.972656 161.300781 C 411.972656 161.722656 412.03125 162.007813 412.144531 162.167969 C 412.257813 162.328125 412.484375 162.40625 412.8125 162.40625 C 413.082031 162.40625 413.304688 162.382813 413.46875 162.335938 L 413.453125 164.507813 C 412.980469 164.683594 412.46875 164.769531 411.910156 164.769531 C 410.109375 164.769531 409.199219 163.738281 409.179688 161.671875 L 409.179688 155.992188 L 407.949219 155.992188 L 407.949219 153.898438 L 409.179688 153.898438 L 409.179688 151.277344 "/>
<g clip-path="url(#clip6)" clip-rule="nonzero">
<path style=" stroke:none;fill-rule:nonzero;fill:rgb(32.199097%,14.099121%,19.999695%);fill-opacity:1;" d="M 419.425781 159.929688 L 420.84375 153.898438 L 423.824219 153.898438 L 420.3125 166.171875 C 419.785156 167.984375 418.796875 168.886719 417.34375 168.886719 C 417.003906 168.886719 416.628906 168.824219 416.199219 168.695313 L 416.199219 166.515625 L 416.523438 166.527344 C 416.957031 166.527344 417.285156 166.445313 417.511719 166.277344 C 417.722656 166.109375 417.890625 165.8125 418.007813 165.402344 L 418.21875 164.683594 L 415.144531 153.898438 L 418.144531 153.898438 "/>
</g>
</g>
</svg>
